<svg width="159" height="49" viewBox="0 0 159 49" fill="none" xmlns="http://www.w3.org/2000/svg">
<rect x="1.27008" y="1.125" width="156.701" height="47" rx="3.5" fill="white"/>
<path d="M45.3623 30.6596V21.489H46.5053V29.9323H49.9342C49.9342 30.3736 49.4929 30.6596 48.8565 30.6596H45.3623V30.6596ZM54.1471 26.815C54.6147 26.815 54.7706 26.6072 54.7706 26.1916C54.7706 25.2307 54.1085 24.3599 53.2395 24.3599C52.1637 24.3599 51.5797 25.6978 51.5889 26.815H54.1499H54.1471ZM55.6538 28.9971C55.3811 29.9842 54.5751 30.7902 53.3411 30.7902C51.9526 30.7902 50.5227 29.7511 50.5227 27.2959C50.5227 24.9051 51.8349 23.7755 53.3158 23.7755C54.7834 23.7755 55.8096 24.9318 55.8096 26.1782C55.8096 27.0058 55.2901 27.4242 54.4487 27.4242H51.6027C51.6027 28.6334 52.2924 29.9438 53.6027 29.9438C54.4073 29.9438 54.9269 29.4886 55.3177 28.8265L55.6579 28.9966L55.6538 28.9971ZM61.0689 25.295C61.0689 24.7369 60.6138 24.4123 59.9517 24.4123C58.8611 24.4123 57.9774 25.3594 57.9774 27.387C57.9774 29.1139 58.6266 29.9847 59.6004 29.9847C60.2119 29.9847 60.7053 29.6592 61.0689 29.2178V25.295V25.295ZM62.16 30.6596C62.0561 30.6734 61.9131 30.6734 61.822 30.6734C61.4974 30.6734 61.3025 30.53 61.2381 30.153L61.1986 29.8679L61.0818 29.8541C60.6014 30.4256 60.0299 30.7645 59.2763 30.7645C57.8372 30.7645 56.8901 29.53 56.8901 27.5553C56.8901 25.192 58.3062 23.8017 60.0487 23.8017C60.6602 23.8017 61.2303 23.958 61.5935 24.1787C61.9843 24.3856 62.1683 24.672 62.1683 25.1396V30.6596H62.16ZM66.4253 26.8803C67.4643 27.2693 68.5292 27.6987 68.5292 28.8665C68.5292 29.9585 67.5545 30.8159 66.0611 30.8159C64.8795 30.8159 63.8142 30.2964 63.4772 28.9447C63.6455 28.8803 63.8014 28.8279 63.9572 28.8279C64.3857 28.8279 64.646 29.153 64.84 29.4513C65.0101 29.7373 65.3471 30.2054 66.1393 30.2054C66.9053 30.2054 67.503 29.7631 67.503 29.0357C67.503 28.2697 66.8147 27.9842 65.8662 27.6334C64.7232 27.192 63.84 26.6849 63.84 25.5681C63.84 24.3989 64.9181 23.775 66.0873 23.775C67.2956 23.775 68.0745 24.3856 68.3862 25.4376C68.1917 25.5295 68.0358 25.581 67.8666 25.581C67.4381 25.581 67.2174 25.2559 67.0096 24.9313C66.766 24.5286 66.4809 24.3599 65.9706 24.3599C65.4004 24.3599 64.8533 24.6716 64.8533 25.3865C64.8533 26.2302 65.4648 26.5291 66.4257 26.8799L66.4253 26.8803ZM69.9935 23.9313H71.074V30.6596H69.9981V23.9313H69.9935ZM70.5407 22.7102C70.1269 22.7102 69.828 22.3985 69.828 22.0215C69.828 21.6325 70.1269 21.3203 70.5453 21.3203C70.9361 21.3203 71.2349 21.633 71.2349 22.0219C71.2349 22.3943 70.9361 22.707 70.5485 22.707L70.5407 22.7102ZM76.9637 30.6564V25.8385C76.9637 24.9038 76.3659 24.3966 75.3531 24.3966C74.4059 24.3966 74.0151 24.6831 74.0151 25.3451V30.6582H72.9384V25.0077C72.9384 24.6316 73.1085 24.3456 73.4469 24.164C73.8882 23.9433 74.525 23.8008 75.4083 23.8008C77.1094 23.8008 78.0455 24.4904 78.0455 25.7884V30.6619H76.965L76.9637 30.6564ZM82.2878 30.0173C82.8979 30.0173 83.4308 29.6909 83.7945 29.2909V25.3047C83.7945 24.7438 83.3807 24.4219 82.6266 24.4219C81.6014 24.4219 80.6266 25.3553 80.6266 27.4058C80.6266 29.1208 81.2887 30.0173 82.2896 30.0173H82.2878ZM83.7968 31.5759V29.981C83.3301 30.4757 82.7324 30.7612 81.966 30.7612C80.4717 30.7612 79.5384 29.3976 79.5384 27.6302C79.5384 25.0072 81.1751 23.7994 82.6823 23.7994C83.4754 23.7994 84.0864 23.9925 84.411 24.2141C84.7489 24.4486 84.8791 24.6693 84.8791 25.1364V31.2927C84.8791 32.7212 83.9319 33.8509 82.3227 33.8509C81.3618 33.8509 80.3733 33.4877 79.9705 32.4877C80.2436 32.3051 80.4395 32.2408 80.6202 32.2408C80.9053 32.2408 81.0883 32.3313 81.3742 32.6822C81.725 33.0973 82.0105 33.2274 82.4653 33.2274C83.2308 33.2274 83.8032 32.6159 83.8032 31.5769" fill="#100F0D"/>
<path d="M23.0229 12.1617C25.2115 12.1617 26.9871 10.387 26.9871 8.19851C26.9871 6.00909 25.2124 4.23438 23.0229 4.23438C20.8344 4.23438 19.0583 6.00909 19.0583 8.19759C19.0583 10.387 20.834 12.1617 23.0216 12.1617" fill="#E41E2C"/>
<path d="M12.017 15.9997C10.7241 16.8815 10.3793 17.9077 10.3793 19.1537L10.3852 29.2089V33.2098C10.3852 34.7974 10.8588 35.5133 11.0634 35.8562C11.7393 36.9859 12.6827 37.9275 13.8115 38.591L13.8961 38.6406V21.9693L13.9972 22.0098C16.2915 22.9445 19.4777 23.5316 23.0133 23.5316H23.0317C28.2823 23.5289 32.788 22.2296 34.6915 20.4167C35.3259 19.8135 35.6662 19.1592 35.6662 18.4742C35.6662 17.7923 35.3259 17.1381 34.6915 16.5284C34.0574 15.9284 33.1379 15.3799 31.9885 14.9202C29.6988 13.9914 26.5264 13.4227 23.0184 13.4227C23.0138 13.4199 23.0027 13.4199 22.9908 13.4199C18.2827 13.4227 14.2027 14.4972 12.0161 16.0002L12.017 15.9997ZM17.6777 18.3082C17.5926 18.207 17.5664 18.0875 17.5664 18.0093C17.5664 17.7749 17.7434 17.5128 18.0482 17.3657C18.1954 17.2967 18.3489 17.2599 18.4942 17.2599H27.7655C27.9112 17.2599 28.0643 17.2921 28.2115 17.3611C28.5195 17.5082 28.6924 17.7703 28.6905 18.0048C28.6905 18.0829 28.6657 18.1992 28.5788 18.299C28.4574 18.4415 28.2496 18.5243 28.0648 18.5243H18.1935C18.0096 18.5243 17.8073 18.4383 17.6786 18.299" fill="url(#paint0_radial_6420_81834)"/>
<path d="M15.3195 39.5382L15.354 39.5548C16.6046 40.1065 17.7816 40.4697 19.3204 40.7318L19.3866 40.741V32.7038C20.274 32.7313 20.8119 33.4316 20.8119 34.1474V38.5061C20.8119 39.4132 20.9729 40.1713 21.2441 40.9281L21.2533 40.9603L21.2901 40.9649C21.5889 40.9971 22.1269 41.0164 22.7246 41.0164C23.5476 41.0164 24.5085 40.9796 25.143 40.8936L25.2119 40.8868L25.1889 40.8196C24.9591 40.1346 24.8717 39.5157 24.8717 38.7387V34.7185C24.8717 33.507 23.8694 32.5153 22.651 32.5134H22.628V32.1382C23.8832 31.9911 24.8809 31.0012 24.8809 29.6992L24.8777 26.8808C24.8777 26.2339 24.9402 25.5861 25.1089 24.998L25.1319 24.9199L25.0492 24.9263C24.6749 24.952 24.1158 24.9649 23.5181 24.9649C22.6414 24.9649 21.6883 24.9364 21.1747 24.8868L21.1296 24.8831L21.1149 24.929C20.9002 25.6049 20.8161 26.1865 20.8161 26.9442V30.1442C20.8161 30.8247 20.3011 31.5658 19.3894 31.5971V24.7038L19.3402 24.6982C17.7981 24.4946 16.6391 24.2495 15.4055 23.8431L15.3319 23.8164L15.3273 39.5392L15.3195 39.5382Z" fill="url(#paint1_radial_6420_81834)"/>
<path d="M34.285 22.5359C32.5701 23.5414 30.1043 24.3694 27.3572 24.7267C26.7503 24.8048 26.3089 25.3382 26.3099 25.9635L26.3007 39.4881C26.3007 40.049 26.7512 40.5009 27.3122 40.5028C27.3811 40.5028 27.4547 40.4945 27.5236 40.4798C29.68 39.9235 31.5053 39.0867 32.9535 37.9373C34.2409 36.8568 35.2892 35.3579 35.2892 33.5878V23.1294C35.2708 22.7593 34.9673 22.4609 34.5903 22.4609C34.4754 22.4609 34.3696 22.4899 34.2777 22.5363L34.285 22.5359ZM30.411 36.5253C30.3558 36.4517 30.3374 36.3676 30.3374 36.277L30.3388 26.5483C30.348 26.2825 30.5664 26.0288 30.8905 25.9423C30.9687 25.9207 31.0469 25.9101 31.1204 25.9101C31.4193 25.9101 31.6768 26.0665 31.7457 26.3088C31.7577 26.3511 31.7641 26.3961 31.7641 26.4402V26.5L31.7595 35.8977C31.7618 36.1184 31.6124 36.3759 31.3549 36.546C31.1848 36.6563 30.9986 36.7161 30.8308 36.7161C30.6515 36.7161 30.4951 36.6471 30.4078 36.5184" fill="url(#paint2_radial_6420_81834)"/>
<path d="M94.4712 14.125V40.125" stroke="black"/>
<path d="M122.795 17.075C122.861 17.471 123.004 18.164 123.092 18.472L124.038 21.948C124.28 22.751 124.764 23.147 125.391 23.147C125.49 23.147 125.6 23.136 125.677 23.125L127.701 15.359H126.403L125.435 19.66C125.347 20.122 125.237 20.991 125.215 21.53H125.061C125.006 21.189 124.819 20.243 124.632 19.649L123.741 16.47C123.499 15.656 122.993 15.337 122.465 15.337C122.377 15.337 122.223 15.348 122.146 15.359L121.013 19.66C120.881 20.122 120.749 20.991 120.705 21.508H120.551C120.496 21.002 120.331 20.144 120.21 19.649L119.44 16.503C119.264 15.656 118.67 15.337 118.098 15.337C118.01 15.337 117.878 15.348 117.801 15.359L119.539 21.948C119.748 22.751 120.276 23.147 120.848 23.147C120.947 23.147 121.101 23.136 121.178 23.125L122.388 18.472C122.465 18.164 122.597 17.471 122.641 17.075H122.795ZM131.927 21.475C131.586 21.992 131.146 22.278 130.519 22.278C129.54 22.278 128.979 21.409 128.979 20.485H131.223C132.026 20.485 132.422 20.1 132.422 19.429C132.422 18.263 131.443 17.295 130.211 17.295C128.88 17.295 127.714 18.263 127.714 20.309C127.714 22.41 129.023 23.235 130.222 23.235C131.311 23.235 132.026 22.597 132.29 21.651L131.927 21.475ZM128.968 19.781C128.968 18.879 129.386 17.966 130.112 17.966C130.728 17.966 131.201 18.604 131.201 19.341C131.201 19.638 131.069 19.781 130.717 19.781H128.968ZM137.052 22.377H134.445L136.447 18.967C136.744 18.461 136.942 18.021 136.942 17.537V17.427H133.213V18.153H135.589L133.576 21.563C133.169 22.234 133.048 22.597 133.048 23.004V23.125H137.052V22.377ZM135.897 15.051C135.534 15.051 135.171 15.216 134.973 15.491L134.236 16.547C134.39 16.624 134.522 16.657 134.676 16.657C134.918 16.657 135.094 16.58 135.314 16.371L136.546 15.183C136.337 15.095 136.139 15.051 135.897 15.051ZM111.506 30.427L110.846 33.177C110.747 33.606 110.681 34.277 110.648 34.772H110.516C110.461 34.343 110.296 33.716 110.186 33.331L109.614 31.384C109.416 30.713 109.042 30.405 108.558 30.405C108.503 30.405 108.36 30.416 108.272 30.427L107.469 33.177C107.337 33.617 107.238 34.277 107.205 34.772H107.073C107.018 34.343 106.897 33.705 106.809 33.331L106.325 31.406C106.16 30.735 105.731 30.405 105.148 30.405C105.049 30.405 104.895 30.416 104.807 30.427L106.116 35.091C106.314 35.795 106.743 36.147 107.238 36.147C107.326 36.147 107.535 36.136 107.623 36.125L108.404 33.342C108.525 32.935 108.613 32.429 108.657 32.011H108.778C108.866 32.506 108.987 33.001 109.097 33.408L109.559 35.091C109.757 35.817 110.208 36.147 110.714 36.147C110.824 36.147 110.978 36.136 111.033 36.125L112.672 30.427H111.506ZM117.808 36.125V27.842H116.532V36.125H117.808ZM123.296 34.475C122.955 34.992 122.515 35.278 121.888 35.278C120.909 35.278 120.348 34.409 120.348 33.485H122.592C123.395 33.485 123.791 33.1 123.791 32.429C123.791 31.263 122.812 30.295 121.58 30.295C120.249 30.295 119.083 31.263 119.083 33.309C119.083 35.41 120.392 36.235 121.591 36.235C122.68 36.235 123.395 35.597 123.659 34.651L123.296 34.475ZM120.337 32.781C120.337 31.879 120.755 30.966 121.481 30.966C122.097 30.966 122.57 31.604 122.57 32.341C122.57 32.638 122.438 32.781 122.086 32.781H120.337ZM128.058 34.772C127.805 35.124 127.464 35.322 127.057 35.322C126.419 35.322 125.913 34.717 125.913 33.342C125.913 31.769 126.551 31.021 127.31 31.021C127.75 31.021 128.058 31.219 128.058 31.615V34.772ZM129.345 31.527C129.345 31.043 129.059 30.757 128.663 30.57C128.333 30.416 127.86 30.306 127.376 30.306C125.858 30.306 124.626 31.571 124.626 33.518C124.626 35.3 125.528 36.213 126.672 36.213C127.321 36.213 127.739 35.938 128.113 35.454L128.234 35.465L128.267 35.641C128.344 35.971 128.509 36.147 128.938 36.147C129.092 36.147 129.257 36.136 129.345 36.125V31.527ZM131.852 31.681C131.852 31.241 132.182 30.977 132.589 30.977C132.952 30.977 133.15 31.087 133.337 31.384C133.513 31.659 133.722 31.978 134.173 31.978C134.371 31.978 134.547 31.923 134.756 31.802C134.492 30.801 133.7 30.306 132.677 30.306C131.621 30.306 130.686 30.856 130.686 31.879C130.686 32.781 131.346 33.232 132.523 33.694C133.227 33.98 133.733 34.178 133.733 34.761C133.733 35.234 133.337 35.564 132.776 35.564C132.226 35.564 131.951 35.245 131.786 34.981C131.566 34.64 131.324 34.409 130.95 34.409C130.752 34.409 130.576 34.464 130.367 34.552C130.642 35.839 131.676 36.257 132.688 36.257C134.052 36.257 134.921 35.498 134.921 34.607C134.921 33.661 134.239 33.265 133.128 32.836C132.237 32.495 131.852 32.242 131.852 31.681ZM137.412 36.125V30.427H136.147V36.125H137.412ZM137.522 28.854C137.522 28.436 137.214 28.117 136.785 28.117C136.356 28.117 136.037 28.436 136.037 28.854C136.037 29.272 136.356 29.591 136.785 29.591C137.214 29.591 137.522 29.272 137.522 28.854ZM143.494 36.125V32.044C143.494 30.922 142.669 30.317 141.14 30.317C140.359 30.317 139.809 30.438 139.457 30.625C139.083 30.801 138.929 31.021 138.929 31.417V36.125H140.205V31.714C140.205 31.241 140.458 31.01 141.096 31.01C141.822 31.01 142.218 31.406 142.218 32.088V36.125H143.494ZM148.189 36.939C148.189 37.786 147.771 38.138 147.32 38.138C146.957 38.138 146.759 37.995 146.473 37.665C146.231 37.39 146.044 37.28 145.736 37.28C145.527 37.28 145.285 37.379 145.032 37.555C145.395 38.468 146.264 38.842 147.177 38.842C148.585 38.842 149.476 37.951 149.476 36.587V31.516C149.476 31.12 149.333 30.889 149.014 30.68C148.728 30.482 148.189 30.317 147.485 30.317C146.132 30.317 144.724 31.34 144.724 33.584C144.724 35.113 145.527 36.213 146.847 36.213C147.397 36.213 147.848 36.026 148.189 35.718V36.939ZM146 33.353C146 31.78 146.704 31.054 147.441 31.054C147.925 31.054 148.189 31.263 148.189 31.648V34.937C147.936 35.19 147.573 35.399 147.166 35.399C146.451 35.399 146 34.75 146 33.353Z" fill="black"/>
<rect x="1.27008" y="1.125" width="156.701" height="47" rx="3.5" stroke="#E6E6E6"/>
<defs>
<radialGradient id="paint0_radial_6420_81834" cx="0" cy="0" r="1" gradientUnits="userSpaceOnUse" gradientTransform="translate(22.931 13.3845) scale(27.4023 27.4023)">
<stop stop-color="#254B9D"/>
<stop offset="0.379" stop-color="#254B9D"/>
<stop offset="1" stop-color="#161418"/>
</radialGradient>
<radialGradient id="paint1_radial_6420_81834" cx="0" cy="0" r="1" gradientUnits="userSpaceOnUse" gradientTransform="translate(22.931 13.4302) scale(27.4023 27.4023)">
<stop stop-color="#254B9D"/>
<stop offset="0.379" stop-color="#254B9D"/>
<stop offset="1" stop-color="#161418"/>
</radialGradient>
<radialGradient id="paint2_radial_6420_81834" cx="0" cy="0" r="1" gradientUnits="userSpaceOnUse" gradientTransform="translate(22.931 13.3832) scale(27.4023)">
<stop stop-color="#254B9D"/>
<stop offset="0.379" stop-color="#254B9D"/>
<stop offset="1" stop-color="#161418"/>
</radialGradient>
</defs>
</svg>
