<svg width="128" height="41" viewBox="0 0 128 41" fill="none" xmlns="http://www.w3.org/2000/svg">
<rect x="0.419556" y="0.625" width="127.161" height="40" rx="4" fill="white"/>
<path d="M37.6933 25.0535V17.717H38.6077V24.4716H41.3509C41.3509 24.8247 40.9978 25.0535 40.4887 25.0535H37.6933ZM44.7212 21.9778C45.0952 21.9778 45.2199 21.8115 45.2199 21.479C45.2199 20.7103 44.6903 20.0137 43.9951 20.0137C43.1344 20.0137 42.6673 21.084 42.6746 21.9778H44.7234H44.7212ZM45.9265 23.7235C45.7084 24.5132 45.0636 25.1579 44.0764 25.1579C42.9656 25.1579 41.8217 24.3267 41.8217 22.3625C41.8217 20.4499 42.8714 19.5462 44.0561 19.5462C45.2302 19.5462 46.0512 20.4712 46.0512 21.4684C46.0512 22.1304 45.6356 22.4652 44.9624 22.4652H42.6857C42.6857 23.4325 43.2374 24.4808 44.2857 24.4808C44.9293 24.4808 45.345 24.1167 45.6576 23.587L45.9298 23.7231L45.9265 23.7235ZM50.2586 20.7618C50.2586 20.3153 49.8945 20.0556 49.3648 20.0556C48.4924 20.0556 47.7854 20.8133 47.7854 22.4354C47.7854 23.8169 48.3048 24.5135 49.0838 24.5135C49.573 24.5135 49.9677 24.2531 50.2586 23.9V20.7618ZM51.1315 25.0535C51.0483 25.0645 50.9339 25.0645 50.8611 25.0645C50.6014 25.0645 50.4455 24.9498 50.394 24.6481L50.3624 24.4201L50.2689 24.4091C49.8846 24.8663 49.4274 25.1373 48.8245 25.1373C47.6733 25.1373 46.9156 24.1498 46.9156 22.57C46.9156 20.6794 48.0484 19.5671 49.4424 19.5671C49.9316 19.5671 50.3877 19.6922 50.6783 19.8687C50.991 20.0343 51.1381 20.2634 51.1381 20.6375V25.0535H51.1315ZM54.5437 22.03C55.375 22.3412 56.2268 22.6847 56.2268 23.619C56.2268 24.4926 55.447 25.1785 54.2524 25.1785C53.3071 25.1785 52.4549 24.7629 52.1853 23.6815C52.3199 23.63 52.4446 23.5881 52.5693 23.5881C52.9121 23.5881 53.1202 23.8481 53.2755 24.0869C53.4116 24.3156 53.6812 24.6901 54.3149 24.6901C54.9277 24.6901 55.4058 24.3362 55.4058 23.7544C55.4058 23.1416 54.8552 22.9132 54.0964 22.6325C53.182 22.2794 52.4755 21.8737 52.4755 20.9803C52.4755 20.0449 53.338 19.5458 54.2733 19.5458C55.24 19.5458 55.863 20.0343 56.1124 20.8758C55.9568 20.9494 55.8321 20.9906 55.6968 20.9906C55.354 20.9906 55.1774 20.7305 55.0112 20.4709C54.8162 20.1487 54.5882 20.0137 54.1799 20.0137C53.7238 20.0137 53.2861 20.263 53.2861 20.835C53.2861 21.5099 53.7753 21.749 54.5441 22.0297L54.5437 22.03ZM57.3983 19.6709H58.2627V25.0535H57.402V19.6709H57.3983ZM57.836 18.6939C57.505 18.6939 57.2659 18.4446 57.2659 18.143C57.2659 17.8318 57.505 17.582 57.8397 17.582C58.1523 17.582 58.3914 17.8321 58.3914 18.1433C58.3914 18.4412 58.1523 18.6914 57.8423 18.6914L57.836 18.6939ZM62.9744 25.0509V21.1966C62.9744 20.4488 62.4962 20.0431 61.6859 20.0431C60.9282 20.0431 60.6156 20.2722 60.6156 20.8019V25.0524H59.7542V20.5319C59.7542 20.231 59.8903 20.0023 60.161 19.857C60.5141 19.6804 61.0235 19.5664 61.7301 19.5664C63.091 19.5664 63.8399 20.1181 63.8399 21.1565V25.0553H62.9755L62.9744 25.0509ZM67.2337 24.5396C67.7218 24.5396 68.1481 24.2785 68.439 23.9585V20.7695C68.439 20.3208 68.108 20.0633 67.5048 20.0633C66.6846 20.0633 65.9048 20.81 65.9048 22.4504C65.9048 23.8224 66.4344 24.5396 67.2352 24.5396H67.2337ZM68.4409 25.7865V24.5106C68.0675 24.9064 67.5894 25.1348 66.9762 25.1348C65.7808 25.1348 65.0342 24.0438 65.0342 22.6299C65.0342 20.5315 66.3436 19.5653 67.5493 19.5653C68.1838 19.5653 68.6726 19.7198 68.9323 19.8971C69.2026 20.0847 69.3067 20.2612 69.3067 20.6349V25.56C69.3067 26.7028 68.549 27.6065 67.2617 27.6065C66.4929 27.6065 65.7021 27.3159 65.3799 26.5159C65.5984 26.3699 65.7551 26.3184 65.8996 26.3184C66.1277 26.3184 66.2741 26.3909 66.5029 26.6715C66.7835 27.0036 67.0119 27.1077 67.3757 27.1077C67.9881 27.1077 68.446 26.6185 68.446 25.7873" fill="#100F0D"/>
<path d="M19.8218 10.254C21.5726 10.254 22.9931 8.83422 22.9931 7.08342C22.9931 5.33188 21.5734 3.91211 19.8218 3.91211C18.071 3.91211 16.6501 5.33188 16.6501 7.08268C16.6501 8.83422 18.0707 10.254 19.8207 10.254" fill="#E41E2C"/>
<path d="M11.0171 13.3236C9.98277 14.0291 9.70691 14.85 9.70691 15.8468L9.71169 23.8909V27.0917C9.71169 28.3617 10.0905 28.9344 10.2542 29.2088C10.7949 30.1126 11.5497 30.8658 12.4527 31.3966L12.5203 31.4363V18.0993L12.6013 18.1317C14.4367 18.8794 16.9856 19.3491 19.8141 19.3491H19.8288C24.0293 19.3469 27.6339 18.3075 29.1567 16.8572C29.6642 16.3746 29.9364 15.8512 29.9364 15.3032C29.9364 14.7577 29.6642 14.2343 29.1567 13.7466C28.6494 13.2666 27.9138 12.8278 26.9943 12.4599C25.1625 11.717 22.6246 11.262 19.8182 11.262C19.8145 11.2598 19.8057 11.2598 19.7961 11.2598C16.0297 11.262 12.7657 12.1216 11.0163 13.324L11.0171 13.3236ZM15.5456 15.1704C15.4776 15.0895 15.4566 14.9938 15.4566 14.9313C15.4566 14.7437 15.5982 14.5341 15.8421 14.4164C15.9598 14.3612 16.0826 14.3318 16.1989 14.3318H23.6159C23.7325 14.3318 23.855 14.3575 23.9727 14.4127C24.2191 14.5304 24.3574 14.74 24.3559 14.9276C24.3559 14.9902 24.3361 15.0832 24.2665 15.163C24.1694 15.2771 24.0032 15.3433 23.8553 15.3433H15.9583C15.8112 15.3433 15.6493 15.2745 15.5464 15.163" fill="url(#paint0_radial_6359_81841)"/>
<path d="M13.6591 32.1556L13.6867 32.1688C14.6872 32.6102 15.6288 32.9008 16.8599 33.1104L16.9128 33.1178V26.688C17.6227 26.7101 18.053 27.2703 18.053 27.843V31.3298C18.053 32.0556 18.1818 32.6621 18.3988 33.2675L18.4062 33.2933L18.4356 33.2969C18.6747 33.3227 19.105 33.3381 19.5832 33.3381C20.2416 33.3381 21.0103 33.3087 21.5179 33.2399L21.573 33.2344L21.5547 33.1807C21.3707 32.6327 21.3009 32.1376 21.3009 31.516V28.2998C21.3009 27.3306 20.499 26.5372 19.5243 26.5357H19.5059V26.2356C20.5101 26.1179 21.3082 25.326 21.3082 24.2843L21.3056 22.0296C21.3056 21.5121 21.3557 20.9938 21.4907 20.5234L21.509 20.4609L21.4428 20.466C21.1434 20.4866 20.6962 20.4969 20.218 20.4969C19.5166 20.4969 18.7541 20.4741 18.3433 20.4344L18.3072 20.4315L18.2954 20.4682C18.1237 21.0089 18.0564 21.4742 18.0564 22.0804V24.6404C18.0564 25.1847 17.6444 25.7777 16.915 25.8027V20.288L16.8757 20.2836C15.642 20.1207 14.7148 19.9246 13.7279 19.5995L13.669 19.5781L13.6654 32.1563L13.6591 32.1556Z" fill="url(#paint1_radial_6359_81841)"/>
<path d="M28.8315 18.5541C27.4596 19.3585 25.487 20.0209 23.2893 20.3067C22.8038 20.3693 22.4507 20.7959 22.4514 21.2962L22.444 32.1158C22.444 32.5646 22.8045 32.9261 23.2532 32.9276C23.3084 32.9276 23.3672 32.921 23.4224 32.9092C25.1475 32.4642 26.6077 31.7947 27.7663 30.8752C28.7962 30.0108 29.6348 28.8118 29.6348 27.3957V19.0289C29.6201 18.7329 29.3774 18.4941 29.0758 18.4941C28.9838 18.4941 28.8992 18.5173 28.8256 18.5545L28.8315 18.5541ZM25.7323 29.7456C25.6882 29.6868 25.6735 29.6195 25.6735 29.547L25.6746 21.764C25.6819 21.5514 25.8566 21.3484 26.1159 21.2792C26.1785 21.262 26.241 21.2535 26.2998 21.2535C26.5389 21.2535 26.7449 21.3786 26.8001 21.5724C26.8096 21.6062 26.8148 21.6423 26.8148 21.6776V21.7254L26.8111 29.2436C26.8129 29.4201 26.6934 29.6261 26.4874 29.7622C26.3513 29.8505 26.2024 29.8983 26.0681 29.8983C25.9247 29.8983 25.7996 29.8431 25.7297 29.7401" fill="url(#paint2_radial_6359_81841)"/>
<path d="M75.5805 13.125V33.125" stroke="black"/>
<path d="M99.1798 15.725C99.2278 16.013 99.3318 16.517 99.3958 16.741L100.084 19.269C100.26 19.853 100.612 20.141 101.068 20.141C101.14 20.141 101.22 20.133 101.276 20.125L102.748 14.477H101.804L101.1 17.605C101.036 17.941 100.956 18.573 100.94 18.965H100.828C100.788 18.717 100.652 18.029 100.516 17.597L99.8678 15.285C99.6918 14.693 99.3238 14.461 98.9398 14.461C98.8758 14.461 98.7638 14.469 98.7078 14.477L97.8838 17.605C97.7878 17.941 97.6918 18.573 97.6598 18.949H97.5478C97.5078 18.581 97.3878 17.957 97.2998 17.597L96.7398 15.309C96.6118 14.693 96.1798 14.461 95.7638 14.461C95.6998 14.461 95.6038 14.469 95.5478 14.477L96.8118 19.269C96.9638 19.853 97.3478 20.141 97.7638 20.141C97.8358 20.141 97.9478 20.133 98.0038 20.125L98.8838 16.741C98.9398 16.517 99.0358 16.013 99.0678 15.725H99.1798ZM105.821 18.925C105.573 19.301 105.253 19.509 104.797 19.509C104.085 19.509 103.677 18.877 103.677 18.205H105.309C105.893 18.205 106.181 17.925 106.181 17.437C106.181 16.589 105.469 15.885 104.573 15.885C103.605 15.885 102.757 16.589 102.757 18.077C102.757 19.605 103.709 20.205 104.581 20.205C105.373 20.205 105.893 19.741 106.085 19.053L105.821 18.925ZM103.669 17.693C103.669 17.037 103.973 16.373 104.501 16.373C104.949 16.373 105.293 16.837 105.293 17.373C105.293 17.589 105.197 17.693 104.941 17.693H103.669ZM109.548 19.581H107.652L109.108 17.101C109.324 16.733 109.468 16.413 109.468 16.061V15.981H106.756V16.509H108.484L107.02 18.989C106.724 19.477 106.636 19.741 106.636 20.037V20.125H109.548V19.581ZM108.708 14.253C108.444 14.253 108.18 14.373 108.036 14.573L107.5 15.341C107.612 15.397 107.708 15.421 107.82 15.421C107.996 15.421 108.124 15.365 108.284 15.213L109.18 14.349C109.028 14.285 108.884 14.253 108.708 14.253ZM90.9696 25.981L90.4896 27.981C90.4176 28.293 90.3696 28.781 90.3456 29.141H90.2496C90.2096 28.829 90.0896 28.373 90.0096 28.093L89.5936 26.677C89.4496 26.189 89.1776 25.965 88.8256 25.965C88.7856 25.965 88.6816 25.973 88.6176 25.981L88.0336 27.981C87.9376 28.301 87.8656 28.781 87.8416 29.141H87.7456C87.7056 28.829 87.6176 28.365 87.5536 28.093L87.2016 26.693C87.0816 26.205 86.7696 25.965 86.3456 25.965C86.2736 25.965 86.1616 25.973 86.0976 25.981L87.0496 29.373C87.1936 29.885 87.5056 30.141 87.8656 30.141C87.9296 30.141 88.0816 30.133 88.1456 30.125L88.7136 28.101C88.8016 27.805 88.8656 27.437 88.8976 27.133H88.9856C89.0496 27.493 89.1376 27.853 89.2176 28.149L89.5536 29.373C89.6976 29.901 90.0256 30.141 90.3936 30.141C90.4736 30.141 90.5856 30.133 90.6256 30.125L91.8176 25.981H90.9696ZM95.5527 30.125V24.101H94.6247V30.125H95.5527ZM99.5437 28.925C99.2957 29.301 98.9757 29.509 98.5197 29.509C97.8077 29.509 97.3997 28.877 97.3997 28.205H99.0317C99.6157 28.205 99.9037 27.925 99.9037 27.437C99.9037 26.589 99.1917 25.885 98.2957 25.885C97.3277 25.885 96.4797 26.589 96.4797 28.077C96.4797 29.605 97.4317 30.205 98.3037 30.205C99.0957 30.205 99.6157 29.741 99.8077 29.053L99.5437 28.925ZM97.3917 27.693C97.3917 27.037 97.6957 26.373 98.2237 26.373C98.6717 26.373 99.0157 26.837 99.0157 27.373C99.0157 27.589 98.9197 27.693 98.6637 27.693H97.3917ZM103.007 29.141C102.823 29.397 102.575 29.541 102.279 29.541C101.815 29.541 101.447 29.101 101.447 28.101C101.447 26.957 101.911 26.413 102.463 26.413C102.783 26.413 103.007 26.557 103.007 26.845V29.141ZM103.943 26.781C103.943 26.429 103.735 26.221 103.447 26.085C103.207 25.973 102.863 25.893 102.511 25.893C101.407 25.893 100.511 26.813 100.511 28.229C100.511 29.525 101.167 30.189 101.999 30.189C102.471 30.189 102.775 29.989 103.047 29.637L103.135 29.645L103.159 29.773C103.215 30.013 103.335 30.141 103.647 30.141C103.759 30.141 103.879 30.133 103.943 30.125V26.781ZM105.767 26.893C105.767 26.573 106.007 26.381 106.303 26.381C106.567 26.381 106.711 26.461 106.847 26.677C106.975 26.877 107.127 27.109 107.455 27.109C107.599 27.109 107.727 27.069 107.879 26.981C107.687 26.253 107.111 25.893 106.367 25.893C105.599 25.893 104.919 26.293 104.919 27.037C104.919 27.693 105.399 28.021 106.255 28.357C106.767 28.565 107.135 28.709 107.135 29.133C107.135 29.477 106.847 29.717 106.439 29.717C106.039 29.717 105.839 29.485 105.719 29.293C105.559 29.045 105.383 28.877 105.111 28.877C104.967 28.877 104.839 28.917 104.687 28.981C104.887 29.917 105.639 30.221 106.375 30.221C107.367 30.221 107.999 29.669 107.999 29.021C107.999 28.333 107.503 28.045 106.695 27.733C106.047 27.485 105.767 27.301 105.767 26.893ZM109.81 30.125V25.981H108.89V30.125H109.81ZM109.89 24.837C109.89 24.533 109.666 24.301 109.354 24.301C109.042 24.301 108.81 24.533 108.81 24.837C108.81 25.141 109.042 25.373 109.354 25.373C109.666 25.373 109.89 25.141 109.89 24.837ZM114.234 30.125V27.157C114.234 26.341 113.634 25.901 112.522 25.901C111.954 25.901 111.554 25.989 111.298 26.125C111.026 26.253 110.914 26.413 110.914 26.701V30.125H111.842V26.917C111.842 26.573 112.026 26.405 112.49 26.405C113.018 26.405 113.306 26.693 113.306 27.189V30.125H114.234ZM117.648 30.717C117.648 31.333 117.344 31.589 117.016 31.589C116.752 31.589 116.608 31.485 116.4 31.245C116.224 31.045 116.088 30.965 115.864 30.965C115.712 30.965 115.536 31.037 115.352 31.165C115.616 31.829 116.248 32.101 116.912 32.101C117.936 32.101 118.584 31.453 118.584 30.461V26.773C118.584 26.485 118.48 26.317 118.248 26.165C118.04 26.021 117.648 25.901 117.136 25.901C116.152 25.901 115.128 26.645 115.128 28.277C115.128 29.389 115.712 30.189 116.672 30.189C117.072 30.189 117.4 30.053 117.648 29.829V30.717ZM116.056 28.109C116.056 26.965 116.568 26.437 117.104 26.437C117.456 26.437 117.648 26.589 117.648 26.869V29.261C117.464 29.445 117.2 29.597 116.904 29.597C116.384 29.597 116.056 29.125 116.056 28.109Z" fill="black"/>
<defs>
<radialGradient id="paint0_radial_6359_81841" cx="0" cy="0" r="1" gradientUnits="userSpaceOnUse" gradientTransform="translate(19.7483 11.2314) scale(21.9218 21.9218)">
<stop stop-color="#254B9D"/>
<stop offset="0.379" stop-color="#254B9D"/>
<stop offset="1" stop-color="#161418"/>
</radialGradient>
<radialGradient id="paint1_radial_6359_81841" cx="0" cy="0" r="1" gradientUnits="userSpaceOnUse" gradientTransform="translate(19.7483 11.2692) scale(21.9218)">
<stop stop-color="#254B9D"/>
<stop offset="0.379" stop-color="#254B9D"/>
<stop offset="1" stop-color="#161418"/>
</radialGradient>
<radialGradient id="paint2_radial_6359_81841" cx="0" cy="0" r="1" gradientUnits="userSpaceOnUse" gradientTransform="translate(19.7483 11.232) scale(21.9218 21.9218)">
<stop stop-color="#254B9D"/>
<stop offset="0.379" stop-color="#254B9D"/>
<stop offset="1" stop-color="#161418"/>
</radialGradient>
</defs>
</svg>
