<svg width="158" height="49" viewBox="0 0 158 49" fill="none" xmlns="http://www.w3.org/2000/svg">
<rect x="0.5" y="1.125" width="156.701" height="47" rx="3.5" fill="white"/>
<path d="M44.5922 30.6596V21.489H45.7352V29.9323H49.1641C49.1641 30.3736 48.7228 30.6596 48.0864 30.6596H44.5922ZM53.377 26.815C53.8446 26.815 54.0005 26.6072 54.0005 26.1916C54.0005 25.2307 53.3384 24.3599 52.4694 24.3599C51.3936 24.3599 50.8096 25.6978 50.8188 26.815H53.3798H53.377ZM54.8837 28.9971C54.611 29.9842 53.8051 30.7902 52.571 30.7902C51.1825 30.7902 49.7526 29.7511 49.7526 27.2959C49.7526 24.9051 51.0648 23.7755 52.5457 23.7755C54.0133 23.7755 55.0395 24.9318 55.0395 26.1782C55.0395 27.0058 54.52 27.4242 53.6786 27.4242H50.8326C50.8326 28.6334 51.5223 29.9438 52.8326 29.9438C53.6372 29.9438 54.1568 29.4886 54.5476 28.8265L54.8878 28.9966L54.8837 28.9971ZM60.2988 25.295C60.2988 24.7369 59.8437 24.4123 59.1816 24.4123C58.091 24.4123 57.2074 25.3594 57.2074 27.387C57.2074 29.1139 57.8565 29.9847 58.8303 29.9847C59.4418 29.9847 59.9352 29.6592 60.2988 29.2178V25.295ZM61.3899 30.6596C61.286 30.6734 61.143 30.6734 61.0519 30.6734C60.7274 30.6734 60.5324 30.53 60.468 30.153L60.4285 29.8679L60.3117 29.8541C59.8313 30.4256 59.2598 30.7645 58.5062 30.7645C57.0671 30.7645 56.12 29.53 56.12 27.5553C56.12 25.192 57.5361 23.8017 59.2786 23.8017C59.8901 23.8017 60.4602 23.958 60.8234 24.1787C61.2142 24.3856 61.3982 24.672 61.3982 25.1396V30.6596H61.3899ZM65.6552 26.8803C66.6942 27.2693 67.7591 27.6987 67.7591 28.8665C67.7591 29.9585 66.7844 30.8159 65.291 30.8159C64.1094 30.8159 63.0441 30.2964 62.7071 28.9447C62.8754 28.8803 63.0313 28.8279 63.1871 28.8279C63.6156 28.8279 63.8759 29.153 64.0699 29.4513C64.24 29.7373 64.577 30.2054 65.3692 30.2054C66.1352 30.2054 66.7329 29.7631 66.7329 29.0357C66.7329 28.2697 66.0446 27.9842 65.0961 27.6334C63.9531 27.192 63.0699 26.6849 63.0699 25.5681C63.0699 24.3989 64.148 23.775 65.3172 23.775C66.5255 23.775 67.3044 24.3856 67.6161 25.4376C67.4216 25.5295 67.2657 25.581 67.0965 25.581C66.668 25.581 66.4473 25.2559 66.2395 24.9313C65.9959 24.5286 65.7108 24.3599 65.2005 24.3599C64.6303 24.3599 64.0832 24.6716 64.0832 25.3865C64.0832 26.2302 64.6947 26.529 65.6556 26.8799L65.6552 26.8803ZM69.2234 23.9313H70.3039V30.6596H69.228V23.9313H69.2234ZM69.7706 22.7102C69.3568 22.7102 69.0579 22.3985 69.0579 22.0215C69.0579 21.6325 69.3568 21.3203 69.7752 21.3203C70.166 21.3203 70.4648 21.633 70.4648 22.0219C70.4648 22.3943 70.166 22.707 69.7784 22.707L69.7706 22.7102ZM76.1936 30.6564V25.8385C76.1936 24.9038 75.5959 24.3966 74.583 24.3966C73.6359 24.3966 73.2451 24.6831 73.2451 25.3451V30.6582H72.1683V25.0077C72.1683 24.6316 72.3384 24.3456 72.6768 24.164C73.1182 23.9433 73.7549 23.8008 74.6382 23.8008C76.3393 23.8008 77.2754 24.4904 77.2754 25.7884V30.6619H76.1949L76.1936 30.6564ZM81.5177 30.0173C82.1278 30.0173 82.6607 29.6909 83.0244 29.2909V25.3047C83.0244 24.7438 82.6106 24.4219 81.8565 24.4219C80.8313 24.4219 79.8565 25.3553 79.8565 27.4058C79.8565 29.1208 80.5186 30.0173 81.5195 30.0173H81.5177ZM83.0267 31.5759V29.981C82.56 30.4757 81.9623 30.7612 81.1959 30.7612C79.7016 30.7612 78.7683 29.3976 78.7683 27.6302C78.7683 25.0072 80.4051 23.7994 81.9122 23.7994C82.7053 23.7994 83.3163 23.9925 83.6409 24.2141C83.9788 24.4486 84.109 24.6693 84.109 25.1364V31.2927C84.109 32.7212 83.1618 33.8509 81.5526 33.8509C80.5917 33.8509 79.6032 33.4877 79.2005 32.4877C79.4736 32.3051 79.6694 32.2408 79.8501 32.2408C80.1352 32.2408 80.3182 32.3313 80.6041 32.6822C80.9549 33.0973 81.2405 33.2274 81.6952 33.2274C82.4607 33.2274 83.0331 32.6159 83.0331 31.5769" fill="#100F0D"/>
<path d="M22.2529 12.1617C24.4414 12.1617 26.217 10.387 26.217 8.19851C26.217 6.00909 24.4423 4.23438 22.2529 4.23438C20.0644 4.23438 18.2883 6.00909 18.2883 8.19759C18.2883 10.387 20.0639 12.1617 22.2515 12.1617" fill="#E41E2C"/>
<path d="M11.2469 15.9997C9.95402 16.8815 9.60919 17.9077 9.60919 19.1537L9.61517 29.2089V33.2098C9.61517 34.7974 10.0887 35.5133 10.2933 35.8562C10.9692 36.9859 11.9126 37.9275 13.0414 38.591L13.126 38.6406V21.9693L13.2271 22.0098C15.5214 22.9445 18.7076 23.5316 22.2432 23.5316H22.2616C27.5122 23.5289 32.0179 22.2296 33.9214 20.4167C34.5559 19.8135 34.8961 19.1592 34.8961 18.4742C34.8961 17.7923 34.5559 17.1381 33.9214 16.5284C33.2874 15.9284 32.3678 15.3799 31.2184 14.9202C28.9287 13.9914 25.7563 13.4227 22.2483 13.4227C22.2437 13.4199 22.2326 13.4199 22.2207 13.4199C17.5126 13.4227 13.4326 14.4972 11.246 16.0002L11.2469 15.9997ZM16.9076 18.3082C16.8225 18.207 16.7963 18.0875 16.7963 18.0093C16.7963 17.7749 16.9733 17.5128 17.2782 17.3657C17.4253 17.2967 17.5788 17.2599 17.7241 17.2599H26.9954C27.1411 17.2599 27.2942 17.2921 27.4414 17.3611C27.7494 17.5082 27.9223 17.7703 27.9205 18.0048C27.9205 18.0829 27.8956 18.1992 27.8087 18.299C27.6874 18.4415 27.4795 18.5243 27.2947 18.5243H17.4234C17.2395 18.5243 17.0372 18.4383 16.9085 18.299" fill="url(#paint0_radial_6359_81783)"/>
<path d="M14.5494 39.5382L14.5839 39.5548C15.8345 40.1065 17.0115 40.4697 18.5503 40.7318L18.6165 40.741V32.7038C19.5039 32.7313 20.0418 33.4316 20.0418 34.1474V38.5061C20.0418 39.4132 20.2028 40.1713 20.474 40.9281L20.4832 40.9603L20.52 40.9649C20.8188 40.9971 21.3568 41.0164 21.9545 41.0164C22.7775 41.0164 23.7384 40.9796 24.3729 40.8936L24.4418 40.8868L24.4188 40.8196C24.189 40.1346 24.1016 39.5157 24.1016 38.7387V34.7185C24.1016 33.507 23.0993 32.5153 21.8809 32.5134H21.8579V32.1382C23.1131 31.9911 24.1108 31.0012 24.1108 29.6992L24.1076 26.8808C24.1076 26.2339 24.1701 25.5861 24.3388 24.998L24.3618 24.9199L24.2791 24.9263C23.9048 24.952 23.3457 24.9649 22.748 24.9649C21.8713 24.9649 20.9182 24.9364 20.4046 24.8868L20.3595 24.8831L20.3448 24.929C20.1301 25.6049 20.046 26.1865 20.046 26.9442V30.1442C20.046 30.8247 19.531 31.5658 18.6193 31.5971V24.7038L18.5701 24.6982C17.028 24.4946 15.869 24.2495 14.6354 23.8431L14.5618 23.8164L14.5572 39.5392L14.5494 39.5382Z" fill="url(#paint1_radial_6359_81783)"/>
<path d="M33.5149 22.5359C31.8 23.5414 29.3343 24.3694 26.5871 24.7267C25.9802 24.8048 25.5389 25.3382 25.5398 25.9635L25.5306 39.4881C25.5306 40.049 25.9812 40.5009 26.5421 40.5028C26.611 40.5028 26.6846 40.4945 26.7536 40.4798C28.9099 39.9235 30.7352 39.0867 32.1835 37.9373C33.4708 36.8568 34.5191 35.3579 34.5191 33.5878V23.1294C34.5007 22.7593 34.1972 22.4609 33.8202 22.4609C33.7053 22.4609 33.5995 22.4899 33.5076 22.5363L33.5149 22.5359ZM29.6409 36.5253C29.5858 36.4517 29.5674 36.3676 29.5674 36.277L29.5687 26.5483C29.5779 26.2825 29.7963 26.0288 30.1205 25.9423C30.1986 25.9207 30.2768 25.9101 30.3503 25.9101C30.6492 25.9101 30.9067 26.0665 30.9756 26.3088C30.9876 26.3511 30.994 26.3961 30.994 26.4402V26.5L30.9894 35.8977C30.9917 36.1184 30.8423 36.3759 30.5848 36.546C30.4147 36.6563 30.2285 36.7161 30.0607 36.7161C29.8814 36.7161 29.7251 36.6471 29.6377 36.5184" fill="url(#paint2_radial_6359_81783)"/>
<path d="M93.7011 14.125V40.125" stroke="black"/>
<path d="M122.025 17.075C122.091 17.471 122.234 18.164 122.322 18.472L123.268 21.948C123.51 22.751 123.994 23.147 124.621 23.147C124.72 23.147 124.83 23.136 124.907 23.125L126.931 15.359H125.633L124.665 19.66C124.577 20.122 124.467 20.991 124.445 21.53H124.291C124.236 21.189 124.049 20.243 123.862 19.649L122.971 16.47C122.729 15.656 122.223 15.337 121.695 15.337C121.607 15.337 121.453 15.348 121.376 15.359L120.243 19.66C120.111 20.122 119.979 20.991 119.935 21.508H119.781C119.726 21.002 119.561 20.144 119.44 19.649L118.67 16.503C118.494 15.656 117.9 15.337 117.328 15.337C117.24 15.337 117.108 15.348 117.031 15.359L118.769 21.948C118.978 22.751 119.506 23.147 120.078 23.147C120.177 23.147 120.331 23.136 120.408 23.125L121.618 18.472C121.695 18.164 121.827 17.471 121.871 17.075H122.025ZM131.157 21.475C130.816 21.992 130.376 22.278 129.749 22.278C128.77 22.278 128.209 21.409 128.209 20.485H130.453C131.256 20.485 131.652 20.1 131.652 19.429C131.652 18.263 130.673 17.295 129.441 17.295C128.11 17.295 126.944 18.263 126.944 20.309C126.944 22.41 128.253 23.235 129.452 23.235C130.541 23.235 131.256 22.597 131.52 21.651L131.157 21.475ZM128.198 19.781C128.198 18.879 128.616 17.966 129.342 17.966C129.958 17.966 130.431 18.604 130.431 19.341C130.431 19.638 130.299 19.781 129.947 19.781H128.198ZM136.282 22.377H133.675L135.677 18.967C135.974 18.461 136.172 18.021 136.172 17.537V17.427H132.443V18.153H134.819L132.806 21.563C132.399 22.234 132.278 22.597 132.278 23.004V23.125H136.282V22.377ZM135.127 15.051C134.764 15.051 134.401 15.216 134.203 15.491L133.466 16.547C133.62 16.624 133.752 16.657 133.906 16.657C134.148 16.657 134.324 16.58 134.544 16.371L135.776 15.183C135.567 15.095 135.369 15.051 135.127 15.051ZM110.736 30.427L110.076 33.177C109.977 33.606 109.911 34.277 109.878 34.772H109.746C109.691 34.343 109.526 33.716 109.416 33.331L108.844 31.384C108.646 30.713 108.272 30.405 107.788 30.405C107.733 30.405 107.59 30.416 107.502 30.427L106.699 33.177C106.567 33.617 106.468 34.277 106.435 34.772H106.303C106.248 34.343 106.127 33.705 106.039 33.331L105.555 31.406C105.39 30.735 104.961 30.405 104.378 30.405C104.279 30.405 104.125 30.416 104.037 30.427L105.346 35.091C105.544 35.795 105.973 36.147 106.468 36.147C106.556 36.147 106.765 36.136 106.853 36.125L107.634 33.342C107.755 32.935 107.843 32.429 107.887 32.011H108.008C108.096 32.506 108.217 33.001 108.327 33.408L108.789 35.091C108.987 35.817 109.438 36.147 109.944 36.147C110.054 36.147 110.208 36.136 110.263 36.125L111.902 30.427H110.736ZM117.038 36.125V27.842H115.762V36.125H117.038ZM122.526 34.475C122.185 34.992 121.745 35.278 121.118 35.278C120.139 35.278 119.578 34.409 119.578 33.485H121.822C122.625 33.485 123.021 33.1 123.021 32.429C123.021 31.263 122.042 30.295 120.81 30.295C119.479 30.295 118.313 31.263 118.313 33.309C118.313 35.41 119.622 36.235 120.821 36.235C121.91 36.235 122.625 35.597 122.889 34.651L122.526 34.475ZM119.567 32.781C119.567 31.879 119.985 30.966 120.711 30.966C121.327 30.966 121.8 31.604 121.8 32.341C121.8 32.638 121.668 32.781 121.316 32.781H119.567ZM127.288 34.772C127.035 35.124 126.694 35.322 126.287 35.322C125.649 35.322 125.143 34.717 125.143 33.342C125.143 31.769 125.781 31.021 126.54 31.021C126.98 31.021 127.288 31.219 127.288 31.615V34.772ZM128.575 31.527C128.575 31.043 128.289 30.757 127.893 30.57C127.563 30.416 127.09 30.306 126.606 30.306C125.088 30.306 123.856 31.571 123.856 33.518C123.856 35.3 124.758 36.213 125.902 36.213C126.551 36.213 126.969 35.938 127.343 35.454L127.464 35.465L127.497 35.641C127.574 35.971 127.739 36.147 128.168 36.147C128.322 36.147 128.487 36.136 128.575 36.125V31.527ZM131.082 31.681C131.082 31.241 131.412 30.977 131.819 30.977C132.182 30.977 132.38 31.087 132.567 31.384C132.743 31.659 132.952 31.978 133.403 31.978C133.601 31.978 133.777 31.923 133.986 31.802C133.722 30.801 132.93 30.306 131.907 30.306C130.851 30.306 129.916 30.856 129.916 31.879C129.916 32.781 130.576 33.232 131.753 33.694C132.457 33.98 132.963 34.178 132.963 34.761C132.963 35.234 132.567 35.564 132.006 35.564C131.456 35.564 131.181 35.245 131.016 34.981C130.796 34.64 130.554 34.409 130.18 34.409C129.982 34.409 129.806 34.464 129.597 34.552C129.872 35.839 130.906 36.257 131.918 36.257C133.282 36.257 134.151 35.498 134.151 34.607C134.151 33.661 133.469 33.265 132.358 32.836C131.467 32.495 131.082 32.242 131.082 31.681ZM136.642 36.125V30.427H135.377V36.125H136.642ZM136.752 28.854C136.752 28.436 136.444 28.117 136.015 28.117C135.586 28.117 135.267 28.436 135.267 28.854C135.267 29.272 135.586 29.591 136.015 29.591C136.444 29.591 136.752 29.272 136.752 28.854ZM142.724 36.125V32.044C142.724 30.922 141.899 30.317 140.37 30.317C139.589 30.317 139.039 30.438 138.687 30.625C138.313 30.801 138.159 31.021 138.159 31.417V36.125H139.435V31.714C139.435 31.241 139.688 31.01 140.326 31.01C141.052 31.01 141.448 31.406 141.448 32.088V36.125H142.724ZM147.419 36.939C147.419 37.786 147.001 38.138 146.55 38.138C146.187 38.138 145.989 37.995 145.703 37.665C145.461 37.39 145.274 37.28 144.966 37.28C144.757 37.28 144.515 37.379 144.262 37.555C144.625 38.468 145.494 38.842 146.407 38.842C147.815 38.842 148.706 37.951 148.706 36.587V31.516C148.706 31.12 148.563 30.889 148.244 30.68C147.958 30.482 147.419 30.317 146.715 30.317C145.362 30.317 143.954 31.34 143.954 33.584C143.954 35.113 144.757 36.213 146.077 36.213C146.627 36.213 147.078 36.026 147.419 35.718V36.939ZM145.23 33.353C145.23 31.78 145.934 31.054 146.671 31.054C147.155 31.054 147.419 31.263 147.419 31.648V34.937C147.166 35.19 146.803 35.399 146.396 35.399C145.681 35.399 145.23 34.75 145.23 33.353Z" fill="black"/>
<rect x="0.5" y="1.125" width="156.701" height="47" rx="3.5" stroke="#E6E6E6"/>
<defs>
<radialGradient id="paint0_radial_6359_81783" cx="0" cy="0" r="1" gradientUnits="userSpaceOnUse" gradientTransform="translate(22.1609 13.3845) scale(27.4023 27.4023)">
<stop stop-color="#254B9D"/>
<stop offset="0.379" stop-color="#254B9D"/>
<stop offset="1" stop-color="#161418"/>
</radialGradient>
<radialGradient id="paint1_radial_6359_81783" cx="0" cy="0" r="1" gradientUnits="userSpaceOnUse" gradientTransform="translate(22.1609 13.4302) scale(27.4023 27.4023)">
<stop stop-color="#254B9D"/>
<stop offset="0.379" stop-color="#254B9D"/>
<stop offset="1" stop-color="#161418"/>
</radialGradient>
<radialGradient id="paint2_radial_6359_81783" cx="0" cy="0" r="1" gradientUnits="userSpaceOnUse" gradientTransform="translate(22.1609 13.3832) scale(27.4023)">
<stop stop-color="#254B9D"/>
<stop offset="0.379" stop-color="#254B9D"/>
<stop offset="1" stop-color="#161418"/>
</radialGradient>
</defs>
</svg>
