<svg width="199" height="69" viewBox="0 0 199 69" fill="none" xmlns="http://www.w3.org/2000/svg">
<rect x="0.0805664" y="0.625" width="198.241" height="68" rx="4" fill="white"/>
<path d="M60.9912 42.2677V31.263H62.3628V41.3949H66.4776C66.4776 41.9245 65.9479 42.2677 65.1843 42.2677H60.9912ZM71.533 37.6542C72.0941 37.6542 72.2811 37.4048 72.2811 36.9061C72.2811 35.753 71.4867 34.708 70.4439 34.708C69.1529 34.708 68.4522 36.3135 68.4632 37.6542H71.5363H71.533ZM73.341 40.2727C73.0138 41.4572 72.0467 42.4244 70.5658 42.4244C68.8996 42.4244 67.1838 41.1775 67.1838 38.2313C67.1838 35.3623 68.7584 34.0068 70.5355 34.0068C72.2966 34.0068 73.528 35.3943 73.528 36.8901C73.528 37.8832 72.9046 38.3852 71.8949 38.3852H68.4798C68.4798 39.8363 69.3074 41.4087 70.8798 41.4087C71.8453 41.4087 72.4687 40.8625 72.9377 40.068L73.346 40.2721L73.341 40.2727ZM79.8392 35.8302C79.8392 35.1604 79.293 34.7709 78.4985 34.7709C77.1898 34.7709 76.1294 35.9074 76.1294 38.3405C76.1294 40.4128 76.9085 41.4578 78.077 41.4578C78.8108 41.4578 79.4028 41.0672 79.8392 40.5375V35.8302ZM81.1485 42.2677C81.0238 42.2843 80.8522 42.2843 80.7429 42.2843C80.3534 42.2843 80.1195 42.1121 80.0422 41.6597L79.9948 41.3177L79.8547 41.3011C79.2781 41.9869 78.5923 42.3935 77.688 42.3935C75.9611 42.3935 74.8246 40.9121 74.8246 38.5425C74.8246 35.7066 76.5239 34.0382 78.6149 34.0382C79.3487 34.0382 80.0329 34.2258 80.4687 34.4906C80.9377 34.7389 81.1584 35.0826 81.1584 35.6437V42.2677H81.1485ZM86.2668 37.7325C87.5137 38.1993 88.7915 38.7146 88.7915 40.116C88.7915 41.4263 87.6218 42.4553 85.8298 42.4553C84.4119 42.4553 83.1336 41.8319 82.7291 40.2098C82.9311 40.1325 83.1181 40.0697 83.3051 40.0697C83.8193 40.0697 84.1316 40.4597 84.3645 40.8178C84.5686 41.161 84.973 41.7226 85.9236 41.7226C86.8428 41.7226 87.56 41.1919 87.56 40.319C87.56 39.3999 86.7341 39.0572 85.5959 38.6363C84.2243 38.1066 83.1645 37.4981 83.1645 36.1579C83.1645 34.7549 84.4582 34.0062 85.8613 34.0062C87.3112 34.0062 88.2458 34.7389 88.6199 36.0012C88.3865 36.1116 88.1995 36.1734 87.9965 36.1734C87.4822 36.1734 87.2174 35.7833 86.968 35.3938C86.6756 34.9105 86.3336 34.708 85.7211 34.708C85.037 34.708 84.3805 35.0821 84.3805 35.94C84.3805 36.9524 85.1142 37.311 86.2673 37.732L86.2668 37.7325ZM90.5487 34.1938H91.8453V42.2677H90.5542V34.1938H90.5487ZM91.2053 32.7284C90.7087 32.7284 90.3501 32.3543 90.3501 31.9019C90.3501 31.4352 90.7087 31.0605 91.2108 31.0605C91.6798 31.0605 92.0384 31.4357 92.0384 31.9025C92.0384 32.3494 91.6798 32.7245 91.2147 32.7245L91.2053 32.7284ZM98.9129 42.2639V36.4823C98.9129 35.3607 98.1956 34.7521 96.9802 34.7521C95.8436 34.7521 95.3747 35.0959 95.3747 35.8903V42.2661H94.0825V35.4854C94.0825 35.0341 94.2867 34.6909 94.6927 34.473C95.2224 34.2081 95.9865 34.0371 97.0464 34.0371C99.0878 34.0371 100.211 34.8647 100.211 36.4222V42.2705H98.9145L98.9129 42.2639ZM105.302 41.497C106.034 41.497 106.673 41.1052 107.11 40.6252V35.8418C107.11 35.1687 106.613 34.7825 105.708 34.7825C104.478 34.7825 103.308 35.9025 103.308 38.3632C103.308 40.4211 104.103 41.497 105.304 41.497H105.302ZM107.113 43.3673V41.4534C106.553 42.047 105.835 42.3897 104.916 42.3897C103.123 42.3897 102.003 40.7532 102.003 38.6324C102.003 35.4848 103.967 34.0354 105.775 34.0354C106.727 34.0354 107.46 34.2672 107.85 34.5331C108.255 34.8145 108.411 35.0793 108.411 35.6399V43.0274C108.411 44.7417 107.275 46.0972 105.344 46.0972C104.191 46.0972 103.004 45.6614 102.521 44.4614C102.849 44.2423 103.084 44.1651 103.301 44.1651C103.643 44.1651 103.862 44.2738 104.206 44.6948C104.627 45.193 104.969 45.3491 105.515 45.3491C106.433 45.3491 107.12 44.6153 107.12 43.3684" fill="#CCCCCC"/>
<path d="M34.184 20.0695C36.8102 20.0695 38.941 17.9398 38.941 15.3136C38.941 12.6863 36.8113 10.5566 34.184 10.5566C31.5578 10.5566 29.4265 12.6863 29.4265 15.3125C29.4265 17.9398 31.5573 20.0695 34.1824 20.0695" fill="#CCCCCC"/>
<path d="M20.9768 24.6738C19.4254 25.7321 19.0116 26.9635 19.0116 28.4587L19.0188 40.5249V45.326C19.0188 47.2311 19.587 48.0901 19.8326 48.5017C20.6436 49.8573 21.7757 50.9872 23.1302 51.7834L23.2317 51.843V31.8374L23.3531 31.886C26.1062 33.0076 29.9297 33.7122 34.1724 33.7122H34.1945C40.4952 33.7089 45.9021 32.1497 48.1862 29.9743C48.9476 29.2504 49.3559 28.4653 49.3559 27.6432C49.3559 26.825 48.9476 26.0399 48.1862 25.3083C47.4254 24.5883 46.3219 23.9301 44.9426 23.3784C42.195 22.2639 38.3881 21.5814 34.1785 21.5814C34.173 21.5781 34.1597 21.5781 34.1454 21.5781C28.4957 21.5814 23.5997 22.8708 20.9757 24.6744L20.9768 24.6738ZM27.7697 27.4441C27.6676 27.3227 27.6361 27.1792 27.6361 27.0854C27.6361 26.8041 27.8486 26.4896 28.2144 26.313C28.3909 26.2303 28.5752 26.1861 28.7495 26.1861H39.875C40.0499 26.1861 40.2337 26.2247 40.4102 26.3075C40.7799 26.4841 40.9873 26.7985 40.9851 27.0799C40.9851 27.1737 40.9553 27.3133 40.851 27.433C40.7054 27.6041 40.456 27.7034 40.2342 27.7034H28.3887C28.168 27.7034 27.9253 27.6002 27.7708 27.433" fill="#CCCCCC"/>
<path d="M24.9398 52.9209L24.9812 52.9408C26.4819 53.6028 27.8943 54.0387 29.7409 54.3532L29.8204 54.3642V44.7195C30.8852 44.7526 31.5307 45.5929 31.5307 46.4519V51.6823C31.5307 52.7708 31.7238 53.6806 32.0493 54.5888L32.0604 54.6274L32.1045 54.6329C32.4631 54.6715 33.1086 54.6947 33.8259 54.6947C34.8135 54.6947 35.9666 54.6506 36.728 54.5474L36.8107 54.5391L36.7831 54.4585C36.5073 53.6365 36.4024 52.8939 36.4024 51.9614V47.1372C36.4024 45.6834 35.1997 44.4933 33.7376 44.4911H33.71V44.0409C35.2162 43.8643 36.4135 42.6765 36.4135 41.114L36.4096 37.7319C36.4096 36.9557 36.4846 36.1783 36.6871 35.4726L36.7147 35.3788L36.6154 35.3866C36.1663 35.4174 35.4954 35.4329 34.7782 35.4329C33.726 35.4329 32.5823 35.3987 31.966 35.3391L31.912 35.3347L31.8943 35.3899C31.6366 36.2009 31.5357 36.8988 31.5357 37.8081V41.6481C31.5357 42.4646 30.9177 43.354 29.8237 43.3915V35.1195L29.7646 35.1129C27.9142 34.8685 26.5233 34.5744 25.043 34.0867L24.9547 34.0547L24.9492 52.922L24.9398 52.9209Z" fill="#CCCCCC"/>
<path d="M47.6986 32.5177C45.6406 33.7243 42.6817 34.7179 39.3852 35.1466C38.6569 35.2404 38.1272 35.8804 38.1283 36.6308L38.1173 52.8603C38.1173 53.5334 38.658 54.0757 39.3311 54.0779C39.4139 54.0779 39.5021 54.068 39.5849 54.0504C42.1725 53.3828 44.3628 52.3786 46.1008 50.9993C47.6456 49.7028 48.9035 47.9041 48.9035 45.78V33.2299C48.8814 32.7858 48.5173 32.4277 48.0649 32.4277C47.927 32.4277 47.8001 32.4625 47.6897 32.5182L47.6986 32.5177ZM43.0497 49.305C42.9835 49.2167 42.9614 49.1157 42.9614 49.007L42.9631 37.3326C42.9741 37.0137 43.2362 36.7091 43.6252 36.6054C43.719 36.5795 43.8128 36.5668 43.901 36.5668C44.2597 36.5668 44.5686 36.7544 44.6514 37.0451C44.6657 37.0959 44.6734 37.1499 44.6734 37.2029V37.2746L44.6679 48.5519C44.6707 48.8167 44.4914 49.1257 44.1824 49.3298C43.9783 49.4622 43.7548 49.5339 43.5534 49.5339C43.3383 49.5339 43.1507 49.4512 43.0459 49.2967" fill="#CCCCCC"/>
<path d="M118.322 21.125V53.125" stroke="#CCCCCC"/>
<path d="M149.796 24.975C149.874 25.443 150.043 26.262 150.147 26.626L151.265 30.734C151.551 31.683 152.123 32.151 152.864 32.151C152.981 32.151 153.111 32.138 153.202 32.125L155.594 22.947H154.06L152.916 28.03C152.812 28.576 152.682 29.603 152.656 30.24H152.474C152.409 29.837 152.188 28.719 151.967 28.017L150.914 24.26C150.628 23.298 150.03 22.921 149.406 22.921C149.302 22.921 149.12 22.934 149.029 22.947L147.69 28.03C147.534 28.576 147.378 29.603 147.326 30.214H147.144C147.079 29.616 146.884 28.602 146.741 28.017L145.831 24.299C145.623 23.298 144.921 22.921 144.245 22.921C144.141 22.921 143.985 22.934 143.894 22.947L145.948 30.734C146.195 31.683 146.819 32.151 147.495 32.151C147.612 32.151 147.794 32.138 147.885 32.125L149.315 26.626C149.406 26.262 149.562 25.443 149.614 24.975H149.796ZM160.588 30.175C160.185 30.786 159.665 31.124 158.924 31.124C157.767 31.124 157.104 30.097 157.104 29.005H159.756C160.705 29.005 161.173 28.55 161.173 27.757C161.173 26.379 160.016 25.235 158.56 25.235C156.987 25.235 155.609 26.379 155.609 28.797C155.609 31.28 157.156 32.255 158.573 32.255C159.86 32.255 160.705 31.501 161.017 30.383L160.588 30.175ZM157.091 28.173C157.091 27.107 157.585 26.028 158.443 26.028C159.171 26.028 159.73 26.782 159.73 27.653C159.73 28.004 159.574 28.173 159.158 28.173H157.091ZM166.645 31.241H163.564L165.93 27.211C166.281 26.613 166.515 26.093 166.515 25.521V25.391H162.108V26.249H164.916L162.537 30.279C162.056 31.072 161.913 31.501 161.913 31.982V32.125H166.645V31.241ZM165.28 22.583C164.851 22.583 164.422 22.778 164.188 23.103L163.317 24.351C163.499 24.442 163.655 24.481 163.837 24.481C164.123 24.481 164.331 24.39 164.591 24.143L166.047 22.739C165.8 22.635 165.566 22.583 165.28 22.583ZM136.454 41.391L135.674 44.641C135.557 45.148 135.479 45.941 135.44 46.526H135.284C135.219 46.019 135.024 45.278 134.894 44.823L134.218 42.522C133.984 41.729 133.542 41.365 132.97 41.365C132.905 41.365 132.736 41.378 132.632 41.391L131.683 44.641C131.527 45.161 131.41 45.941 131.371 46.526H131.215C131.15 46.019 131.007 45.265 130.903 44.823L130.331 42.548C130.136 41.755 129.629 41.365 128.94 41.365C128.823 41.365 128.641 41.378 128.537 41.391L130.084 46.903C130.318 47.735 130.825 48.151 131.41 48.151C131.514 48.151 131.761 48.138 131.865 48.125L132.788 44.836C132.931 44.355 133.035 43.757 133.087 43.263H133.23C133.334 43.848 133.477 44.433 133.607 44.914L134.153 46.903C134.387 47.761 134.92 48.151 135.518 48.151C135.648 48.151 135.83 48.138 135.895 48.125L137.832 41.391H136.454ZM143.902 48.125V38.336H142.394V48.125H143.902ZM150.387 46.175C149.984 46.786 149.464 47.124 148.723 47.124C147.566 47.124 146.903 46.097 146.903 45.005H149.555C150.504 45.005 150.972 44.55 150.972 43.757C150.972 42.379 149.815 41.235 148.359 41.235C146.786 41.235 145.408 42.379 145.408 44.797C145.408 47.28 146.955 48.255 148.372 48.255C149.659 48.255 150.504 47.501 150.816 46.383L150.387 46.175ZM146.89 44.173C146.89 43.107 147.384 42.028 148.242 42.028C148.97 42.028 149.529 42.782 149.529 43.653C149.529 44.004 149.373 44.173 148.957 44.173H146.89ZM156.015 46.526C155.716 46.942 155.313 47.176 154.832 47.176C154.078 47.176 153.48 46.461 153.48 44.836C153.48 42.977 154.234 42.093 155.131 42.093C155.651 42.093 156.015 42.327 156.015 42.795V46.526ZM157.536 42.691C157.536 42.119 157.198 41.781 156.73 41.56C156.34 41.378 155.781 41.248 155.209 41.248C153.415 41.248 151.959 42.743 151.959 45.044C151.959 47.15 153.025 48.229 154.377 48.229C155.144 48.229 155.638 47.904 156.08 47.332L156.223 47.345L156.262 47.553C156.353 47.943 156.548 48.151 157.055 48.151C157.237 48.151 157.432 48.138 157.536 48.125V42.691ZM160.5 42.873C160.5 42.353 160.89 42.041 161.371 42.041C161.8 42.041 162.034 42.171 162.255 42.522C162.463 42.847 162.71 43.224 163.243 43.224C163.477 43.224 163.685 43.159 163.932 43.016C163.62 41.833 162.684 41.248 161.475 41.248C160.227 41.248 159.122 41.898 159.122 43.107C159.122 44.173 159.902 44.706 161.293 45.252C162.125 45.59 162.723 45.824 162.723 46.513C162.723 47.072 162.255 47.462 161.592 47.462C160.942 47.462 160.617 47.085 160.422 46.773C160.162 46.37 159.876 46.097 159.434 46.097C159.2 46.097 158.992 46.162 158.745 46.266C159.07 47.787 160.292 48.281 161.488 48.281C163.1 48.281 164.127 47.384 164.127 46.331C164.127 45.213 163.321 44.745 162.008 44.238C160.955 43.835 160.5 43.536 160.5 42.873ZM167.07 48.125V41.391H165.575V48.125H167.07ZM167.2 39.532C167.2 39.038 166.836 38.661 166.329 38.661C165.822 38.661 165.445 39.038 165.445 39.532C165.445 40.026 165.822 40.403 166.329 40.403C166.836 40.403 167.2 40.026 167.2 39.532ZM174.258 48.125V43.302C174.258 41.976 173.283 41.261 171.476 41.261C170.553 41.261 169.903 41.404 169.487 41.625C169.045 41.833 168.863 42.093 168.863 42.561V48.125H170.371V42.912C170.371 42.353 170.67 42.08 171.424 42.08C172.282 42.08 172.75 42.548 172.75 43.354V48.125H174.258ZM179.807 49.087C179.807 50.088 179.313 50.504 178.78 50.504C178.351 50.504 178.117 50.335 177.779 49.945C177.493 49.62 177.272 49.49 176.908 49.49C176.661 49.49 176.375 49.607 176.076 49.815C176.505 50.894 177.532 51.336 178.611 51.336C180.275 51.336 181.328 50.283 181.328 48.671V42.678C181.328 42.21 181.159 41.937 180.782 41.69C180.444 41.456 179.807 41.261 178.975 41.261C177.376 41.261 175.712 42.47 175.712 45.122C175.712 46.929 176.661 48.229 178.221 48.229C178.871 48.229 179.404 48.008 179.807 47.644V49.087ZM177.22 44.849C177.22 42.99 178.052 42.132 178.923 42.132C179.495 42.132 179.807 42.379 179.807 42.834V46.721C179.508 47.02 179.079 47.267 178.598 47.267C177.753 47.267 177.22 46.5 177.22 44.849Z" fill="#CCCCCC"/>
</svg>
