<svg width="128" height="41" viewBox="0 0 128 41" fill="none" xmlns="http://www.w3.org/2000/svg">
<rect y="0.625" width="127.161" height="40" rx="4" fill="white"/>
<path d="M37.2737 25.0535V17.717H38.1881V24.4716H40.9313C40.9313 24.8247 40.5782 25.0535 40.0691 25.0535H37.2737ZM44.3016 21.9778C44.6757 21.9778 44.8004 21.8115 44.8004 21.479C44.8004 20.7103 44.2707 20.0137 43.5755 20.0137C42.7148 20.0137 42.2477 21.084 42.2551 21.9778H44.3038H44.3016ZM45.5069 23.7235C45.2888 24.5132 44.644 25.1579 43.6568 25.1579C42.546 25.1579 41.4021 24.3267 41.4021 22.3625C41.4021 20.4499 42.4519 19.5462 43.6366 19.5462C44.8107 19.5462 45.6316 20.4712 45.6316 21.4684C45.6316 22.1304 45.216 22.4652 44.5429 22.4652H42.2661C42.2661 23.4325 42.8178 24.4808 43.8661 24.4808C44.5098 24.4808 44.9254 24.1167 45.2381 23.587L45.5102 23.7231L45.5069 23.7235ZM49.8391 20.7618C49.8391 20.3153 49.4749 20.0556 48.9453 20.0556C48.0728 20.0556 47.3659 20.8133 47.3659 22.4354C47.3659 23.8169 47.8852 24.5135 48.6643 24.5135C49.1535 24.5135 49.5481 24.2531 49.8391 23.9V20.7618ZM50.7119 25.0535C50.6288 25.0645 50.5144 25.0645 50.4416 25.0645C50.1819 25.0645 50.0259 24.9498 49.9744 24.6481L49.9428 24.4201L49.8494 24.4091C49.465 24.8663 49.0078 25.1373 48.405 25.1373C47.2537 25.1373 46.496 24.1498 46.496 22.57C46.496 20.6794 47.6289 19.5671 49.0229 19.5671C49.5121 19.5671 49.9682 19.6922 50.2588 19.8687C50.5714 20.0343 50.7185 20.2634 50.7185 20.6375V25.0535H50.7119ZM54.1241 22.03C54.9554 22.3412 55.8073 22.6847 55.8073 23.619C55.8073 24.4926 55.0275 25.1785 53.8328 25.1785C52.8875 25.1785 52.0353 24.7629 51.7657 23.6815C51.9003 23.63 52.025 23.5881 52.1497 23.5881C52.4925 23.5881 52.7007 23.8481 52.8559 24.0869C52.992 24.3156 53.2616 24.6901 53.8953 24.6901C54.5081 24.6901 54.9863 24.3362 54.9863 23.7544C54.9863 23.1416 54.4357 22.9132 53.6769 22.6325C52.7625 22.2794 52.0559 21.8737 52.0559 20.9803C52.0559 20.0449 52.9184 19.5458 53.8538 19.5458C54.8204 19.5458 55.4435 20.0343 55.6929 20.8758C55.5373 20.9494 55.4126 20.9906 55.2772 20.9906C54.9344 20.9906 54.7579 20.7305 54.5916 20.4709C54.3967 20.1487 54.1686 20.0137 53.7604 20.0137C53.3043 20.0137 52.8666 20.263 52.8666 20.835C52.8666 21.5099 53.3558 21.749 54.1245 22.0297L54.1241 22.03ZM56.9788 19.6709H57.8431V25.0535H56.9824V19.6709H56.9788ZM57.4165 18.6939C57.0854 18.6939 56.8463 18.4446 56.8463 18.143C56.8463 17.8318 57.0854 17.582 57.4201 17.582C57.7328 17.582 57.9719 17.8321 57.9719 18.1433C57.9719 18.4412 57.7328 18.6914 57.4227 18.6914L57.4165 18.6939ZM62.5548 25.0509V21.1966C62.5548 20.4488 62.0767 20.0431 61.2664 20.0431C60.5087 20.0431 60.196 20.2722 60.196 20.8019V25.0524H59.3346V20.5319C59.3346 20.231 59.4707 20.0023 59.7414 19.857C60.0945 19.6804 60.6039 19.5664 61.3105 19.5664C62.6714 19.5664 63.4203 20.1181 63.4203 21.1565V25.0553H62.5559L62.5548 25.0509ZM66.8142 24.5396C67.3022 24.5396 67.7285 24.2785 68.0195 23.9585V20.7695C68.0195 20.3208 67.6885 20.0633 67.0852 20.0633C66.265 20.0633 65.4852 20.81 65.4852 22.4504C65.4852 23.8224 66.0149 24.5396 66.8156 24.5396H66.8142ZM68.0213 25.7865V24.5106C67.648 24.9064 67.1698 25.1348 66.5567 25.1348C65.3613 25.1348 64.6146 24.0438 64.6146 22.6299C64.6146 20.5315 65.924 19.5653 67.1297 19.5653C67.7642 19.5653 68.253 19.7198 68.5127 19.8971C68.7831 20.0847 68.8872 20.2612 68.8872 20.6349V25.56C68.8872 26.7028 68.1295 27.6065 66.8421 27.6065C66.0734 27.6065 65.2826 27.3159 64.9604 26.5159C65.1788 26.3699 65.3355 26.3184 65.4801 26.3184C65.7081 26.3184 65.8545 26.3909 66.0833 26.6715C66.3639 27.0036 66.5924 27.1077 66.9561 27.1077C67.5685 27.1077 68.0265 26.6185 68.0265 25.7873" fill="#CCCCCC"/>
<path d="M19.4023 10.254C21.1531 10.254 22.5736 8.83422 22.5736 7.08342C22.5736 5.33188 21.1538 3.91211 19.4023 3.91211C17.6515 3.91211 16.2306 5.33188 16.2306 7.08268C16.2306 8.83422 17.6511 10.254 19.4012 10.254" fill="#CCCCCC"/>
<path d="M10.5975 13.3236C9.56322 14.0291 9.28735 14.85 9.28735 15.8468L9.29214 23.8909V27.0917C9.29214 28.3617 9.67099 28.9344 9.83466 29.2088C10.3754 30.1126 11.1301 30.8658 12.0331 31.3966L12.1008 31.4363V18.0993L12.1817 18.1317C14.0171 18.8794 16.5661 19.3491 19.3946 19.3491H19.4093C23.6097 19.3469 27.2143 18.3075 28.7371 16.8572C29.2447 16.3746 29.5169 15.8512 29.5169 15.3032C29.5169 14.7577 29.2447 14.2343 28.7371 13.7466C28.2299 13.2666 27.4942 12.8278 26.5747 12.4599C24.743 11.717 22.2051 11.262 19.3986 11.262C19.3949 11.2598 19.3861 11.2598 19.3765 11.2598C15.6101 11.262 12.3461 12.1216 10.5968 13.324L10.5975 13.3236ZM15.1261 15.1704C15.058 15.0895 15.0371 14.9938 15.0371 14.9313C15.0371 14.7437 15.1787 14.5341 15.4225 14.4164C15.5402 14.3612 15.6631 14.3318 15.7793 14.3318H23.1963C23.3129 14.3318 23.4354 14.3575 23.5531 14.4127C23.7995 14.5304 23.9378 14.74 23.9364 14.9276C23.9364 14.9902 23.9165 15.0832 23.847 15.163C23.7499 15.2771 23.5836 15.3433 23.4358 15.3433H15.5388C15.3916 15.3433 15.2298 15.2745 15.1268 15.163" fill="#CCCCCC"/>
<path d="M13.2395 32.1556L13.2671 32.1688C14.2676 32.6102 15.2092 32.9008 16.4403 33.1104L16.4932 33.1178V26.688C17.2031 26.7101 17.6335 27.2703 17.6335 27.843V31.3298C17.6335 32.0556 17.7622 32.6621 17.9792 33.2675L17.9866 33.2933L18.016 33.2969C18.2551 33.3227 18.6854 33.3381 19.1636 33.3381C19.822 33.3381 20.5907 33.3087 21.0983 33.2399L21.1535 33.2344L21.1351 33.1807C20.9512 32.6327 20.8813 32.1376 20.8813 31.516V28.2998C20.8813 27.3306 20.0794 26.5372 19.1047 26.5357H19.0863V26.2356C20.0905 26.1179 20.8886 25.326 20.8886 24.2843L20.8861 22.0296C20.8861 21.5121 20.9361 20.9938 21.0711 20.5234L21.0895 20.4609L21.0233 20.466C20.7239 20.4866 20.2766 20.4969 19.7984 20.4969C19.097 20.4969 18.3345 20.4741 17.9237 20.4344L17.8876 20.4315L17.8759 20.4682C17.7041 21.0089 17.6368 21.4742 17.6368 22.0804V24.6404C17.6368 25.1847 17.2248 25.7777 16.4954 25.8027V20.288L16.4561 20.2836C15.2224 20.1207 14.2952 19.9246 13.3083 19.5995L13.2495 19.5781L13.2458 32.1563L13.2395 32.1556Z" fill="#CCCCCC"/>
<path d="M28.4119 18.5541C27.04 19.3585 25.0674 20.0209 22.8697 20.3067C22.3842 20.3693 22.0311 20.7959 22.0318 21.2962L22.0244 32.1158C22.0244 32.5646 22.3849 32.9261 22.8336 32.9276C22.8888 32.9276 22.9477 32.921 23.0028 32.9092C24.7279 32.4642 26.1881 31.7947 27.3467 30.8752C28.3766 30.0108 29.2152 28.8118 29.2152 27.3957V19.0289C29.2005 18.7329 28.9578 18.4941 28.6562 18.4941C28.5642 18.4941 28.4796 18.5173 28.4061 18.5545L28.4119 18.5541ZM25.3127 29.7456C25.2686 29.6868 25.2539 29.6195 25.2539 29.547L25.255 21.764C25.2623 21.5514 25.437 21.3484 25.6964 21.2792C25.7589 21.262 25.8214 21.2535 25.8803 21.2535C26.1193 21.2535 26.3253 21.3786 26.3805 21.5724C26.3901 21.6062 26.3952 21.6423 26.3952 21.6776V21.7254L26.3915 29.2436C26.3934 29.4201 26.2738 29.6261 26.0678 29.7622C25.9318 29.8505 25.7828 29.8983 25.6485 29.8983C25.5051 29.8983 25.38 29.8431 25.3101 29.7401" fill="#CCCCCC"/>
<path d="M75.1609 13.125V33.125" stroke="#CCCCCC"/>
<path d="M98.7602 15.725C98.8082 16.013 98.9122 16.517 98.9762 16.741L99.6642 19.269C99.8402 19.853 100.192 20.141 100.648 20.141C100.72 20.141 100.8 20.133 100.856 20.125L102.328 14.477H101.384L100.68 17.605C100.616 17.941 100.536 18.573 100.52 18.965H100.408C100.368 18.717 100.232 18.029 100.096 17.597L99.4482 15.285C99.2722 14.693 98.9042 14.461 98.5202 14.461C98.4562 14.461 98.3442 14.469 98.2882 14.477L97.4642 17.605C97.3682 17.941 97.2722 18.573 97.2402 18.949H97.1282C97.0882 18.581 96.9682 17.957 96.8802 17.597L96.3202 15.309C96.1922 14.693 95.7602 14.461 95.3442 14.461C95.2802 14.461 95.1842 14.469 95.1282 14.477L96.3922 19.269C96.5442 19.853 96.9282 20.141 97.3442 20.141C97.4162 20.141 97.5282 20.133 97.5842 20.125L98.4642 16.741C98.5202 16.517 98.6162 16.013 98.6482 15.725H98.7602ZM105.402 18.925C105.154 19.301 104.834 19.509 104.378 19.509C103.666 19.509 103.258 18.877 103.258 18.205H104.89C105.474 18.205 105.762 17.925 105.762 17.437C105.762 16.589 105.05 15.885 104.154 15.885C103.186 15.885 102.338 16.589 102.338 18.077C102.338 19.605 103.29 20.205 104.162 20.205C104.954 20.205 105.474 19.741 105.666 19.053L105.402 18.925ZM103.25 17.693C103.25 17.037 103.554 16.373 104.082 16.373C104.53 16.373 104.874 16.837 104.874 17.373C104.874 17.589 104.778 17.693 104.522 17.693H103.25ZM109.129 19.581H107.233L108.689 17.101C108.905 16.733 109.049 16.413 109.049 16.061V15.981H106.337V16.509H108.065L106.601 18.989C106.305 19.477 106.217 19.741 106.217 20.037V20.125H109.129V19.581ZM108.289 14.253C108.025 14.253 107.761 14.373 107.617 14.573L107.081 15.341C107.193 15.397 107.289 15.421 107.401 15.421C107.577 15.421 107.705 15.365 107.865 15.213L108.761 14.349C108.609 14.285 108.465 14.253 108.289 14.253ZM90.55 25.981L90.07 27.981C89.998 28.293 89.95 28.781 89.926 29.141H89.83C89.79 28.829 89.67 28.373 89.59 28.093L89.174 26.677C89.03 26.189 88.758 25.965 88.406 25.965C88.366 25.965 88.262 25.973 88.198 25.981L87.614 27.981C87.518 28.301 87.446 28.781 87.422 29.141H87.326C87.286 28.829 87.198 28.365 87.134 28.093L86.782 26.693C86.662 26.205 86.35 25.965 85.926 25.965C85.854 25.965 85.742 25.973 85.678 25.981L86.63 29.373C86.774 29.885 87.086 30.141 87.446 30.141C87.51 30.141 87.662 30.133 87.726 30.125L88.294 28.101C88.382 27.805 88.446 27.437 88.478 27.133H88.566C88.63 27.493 88.718 27.853 88.798 28.149L89.134 29.373C89.278 29.901 89.606 30.141 89.974 30.141C90.054 30.141 90.166 30.133 90.206 30.125L91.398 25.981H90.55ZM95.1331 30.125V24.101H94.2051V30.125H95.1331ZM99.1242 28.925C98.8762 29.301 98.5562 29.509 98.1002 29.509C97.3882 29.509 96.9802 28.877 96.9802 28.205H98.6122C99.1962 28.205 99.4842 27.925 99.4842 27.437C99.4842 26.589 98.7722 25.885 97.8762 25.885C96.9082 25.885 96.0602 26.589 96.0602 28.077C96.0602 29.605 97.0122 30.205 97.8842 30.205C98.6762 30.205 99.1962 29.741 99.3882 29.053L99.1242 28.925ZM96.9722 27.693C96.9722 27.037 97.2762 26.373 97.8042 26.373C98.2522 26.373 98.5962 26.837 98.5962 27.373C98.5962 27.589 98.5002 27.693 98.2442 27.693H96.9722ZM102.587 29.141C102.403 29.397 102.155 29.541 101.859 29.541C101.395 29.541 101.027 29.101 101.027 28.101C101.027 26.957 101.491 26.413 102.043 26.413C102.363 26.413 102.587 26.557 102.587 26.845V29.141ZM103.523 26.781C103.523 26.429 103.315 26.221 103.027 26.085C102.787 25.973 102.443 25.893 102.091 25.893C100.987 25.893 100.091 26.813 100.091 28.229C100.091 29.525 100.747 30.189 101.579 30.189C102.051 30.189 102.355 29.989 102.627 29.637L102.715 29.645L102.739 29.773C102.795 30.013 102.915 30.141 103.227 30.141C103.339 30.141 103.459 30.133 103.523 30.125V26.781ZM105.347 26.893C105.347 26.573 105.587 26.381 105.883 26.381C106.147 26.381 106.291 26.461 106.427 26.677C106.555 26.877 106.707 27.109 107.035 27.109C107.179 27.109 107.307 27.069 107.459 26.981C107.267 26.253 106.691 25.893 105.947 25.893C105.179 25.893 104.499 26.293 104.499 27.037C104.499 27.693 104.979 28.021 105.835 28.357C106.347 28.565 106.715 28.709 106.715 29.133C106.715 29.477 106.427 29.717 106.019 29.717C105.619 29.717 105.419 29.485 105.299 29.293C105.139 29.045 104.963 28.877 104.691 28.877C104.547 28.877 104.419 28.917 104.267 28.981C104.467 29.917 105.219 30.221 105.955 30.221C106.947 30.221 107.579 29.669 107.579 29.021C107.579 28.333 107.083 28.045 106.275 27.733C105.627 27.485 105.347 27.301 105.347 26.893ZM109.391 30.125V25.981H108.471V30.125H109.391ZM109.471 24.837C109.471 24.533 109.247 24.301 108.935 24.301C108.623 24.301 108.391 24.533 108.391 24.837C108.391 25.141 108.623 25.373 108.935 25.373C109.247 25.373 109.471 25.141 109.471 24.837ZM113.814 30.125V27.157C113.814 26.341 113.214 25.901 112.102 25.901C111.534 25.901 111.134 25.989 110.878 26.125C110.606 26.253 110.494 26.413 110.494 26.701V30.125H111.422V26.917C111.422 26.573 111.606 26.405 112.07 26.405C112.598 26.405 112.886 26.693 112.886 27.189V30.125H113.814ZM117.228 30.717C117.228 31.333 116.924 31.589 116.596 31.589C116.332 31.589 116.188 31.485 115.98 31.245C115.804 31.045 115.668 30.965 115.444 30.965C115.292 30.965 115.116 31.037 114.932 31.165C115.196 31.829 115.828 32.101 116.492 32.101C117.516 32.101 118.164 31.453 118.164 30.461V26.773C118.164 26.485 118.06 26.317 117.828 26.165C117.62 26.021 117.228 25.901 116.716 25.901C115.732 25.901 114.708 26.645 114.708 28.277C114.708 29.389 115.292 30.189 116.252 30.189C116.652 30.189 116.98 30.053 117.228 29.829V30.717ZM115.636 28.109C115.636 26.965 116.148 26.437 116.684 26.437C117.036 26.437 117.228 26.589 117.228 26.869V29.261C117.044 29.445 116.78 29.597 116.484 29.597C115.964 29.597 115.636 29.125 115.636 28.109Z" fill="#CCCCCC"/>
</svg>
