<svg width="199" height="69" viewBox="0 0 199 69" fill="none" xmlns="http://www.w3.org/2000/svg">
<rect y="0.625" width="198.241" height="68" rx="4" fill="#004C9A"/>
<path d="M60.9106 42.2677V31.263H62.2822V41.3949H66.397C66.397 41.9245 65.8673 42.2677 65.1038 42.2677H60.9106ZM71.4524 37.6542C72.0135 37.6542 72.2006 37.4048 72.2006 36.9061C72.2006 35.753 71.4061 34.708 70.3633 34.708C69.0723 34.708 68.3716 36.3135 68.3826 37.6542H71.4557H71.4524ZM73.2604 40.2727C72.9333 41.4572 71.9661 42.4244 70.4853 42.4244C68.8191 42.4244 67.1032 41.1775 67.1032 38.2313C67.1032 35.3623 68.6778 34.0068 70.4549 34.0068C72.216 34.0068 73.4475 35.3943 73.4475 36.8901C73.4475 37.8832 72.824 38.3852 71.8144 38.3852H68.3992C68.3992 39.8363 69.2268 41.4087 70.7992 41.4087C71.7647 41.4087 72.3882 40.8625 72.8571 40.068L73.2654 40.2721L73.2604 40.2727ZM79.7586 35.8302C79.7586 35.1604 79.2124 34.7709 78.418 34.7709C77.1093 34.7709 76.0489 35.9074 76.0489 38.3405C76.0489 40.4128 76.8279 41.4578 77.9964 41.4578C78.7302 41.4578 79.3222 41.0672 79.7586 40.5375V35.8302ZM81.0679 42.2677C80.9432 42.2843 80.7716 42.2843 80.6624 42.2843C80.2729 42.2843 80.0389 42.1121 79.9617 41.6597L79.9142 41.3177L79.7741 41.3011C79.1975 41.9869 78.5117 42.3935 77.6075 42.3935C75.8806 42.3935 74.744 40.9121 74.744 38.5425C74.744 35.7066 76.4433 34.0382 78.5344 34.0382C79.2682 34.0382 79.9523 34.2258 80.3882 34.4906C80.8571 34.7389 81.0778 35.0826 81.0778 35.6437V42.2677H81.0679ZM86.1862 37.7325C87.4331 38.1993 88.7109 38.7146 88.7109 40.116C88.7109 41.4263 87.5413 42.4553 85.7493 42.4553C84.3313 42.4553 83.053 41.8319 82.6486 40.2098C82.8505 40.1325 83.0375 40.0697 83.2246 40.0697C83.7388 40.0697 84.0511 40.4597 84.2839 40.8178C84.488 41.161 84.8924 41.7226 85.8431 41.7226C86.7622 41.7226 87.4795 41.1919 87.4795 40.319C87.4795 39.3999 86.6535 39.0572 85.5153 38.6363C84.1437 38.1066 83.0839 37.4981 83.0839 36.1579C83.0839 34.7549 84.3777 34.0062 85.7807 34.0062C87.2306 34.0062 88.1653 34.7389 88.5393 36.0012C88.306 36.1116 88.1189 36.1734 87.9159 36.1734C87.4017 36.1734 87.1368 35.7833 86.8875 35.3938C86.5951 34.9105 86.253 34.708 85.6406 34.708C84.9564 34.708 84.2999 35.0821 84.2999 35.94C84.2999 36.9524 85.0337 37.311 86.1868 37.732L86.1862 37.7325ZM90.4682 34.1938H91.7647V42.2677H90.4737V34.1938H90.4682ZM91.1247 32.7284C90.6282 32.7284 90.2695 32.3543 90.2695 31.9019C90.2695 31.4352 90.6282 31.0605 91.1302 31.0605C91.5992 31.0605 91.9578 31.4357 91.9578 31.9025C91.9578 32.3494 91.5992 32.7245 91.1341 32.7245L91.1247 32.7284ZM98.8323 42.2639V36.4823C98.8323 35.3607 98.1151 34.7521 96.8996 34.7521C95.7631 34.7521 95.2941 35.0959 95.2941 35.8903V42.2661H94.0019V35.4854C94.0019 35.0341 94.2061 34.6909 94.6122 34.473C95.1418 34.2081 95.906 34.0371 96.9658 34.0371C99.0072 34.0371 100.131 34.8647 100.131 36.4222V42.2705H98.834L98.8323 42.2639ZM105.221 41.497C105.953 41.497 106.593 41.1052 107.029 40.6252V35.8418C107.029 35.1687 106.533 34.7825 105.628 34.7825C104.398 34.7825 103.228 35.9025 103.228 38.3632C103.228 40.4211 104.022 41.497 105.223 41.497H105.221ZM107.032 43.3673V41.4534C106.472 42.047 105.755 42.3897 104.835 42.3897C103.042 42.3897 101.922 40.7532 101.922 38.6324C101.922 35.4848 103.886 34.0354 105.695 34.0354C106.646 34.0354 107.38 34.2672 107.769 34.5331C108.175 34.8145 108.331 35.0793 108.331 35.6399V43.0274C108.331 44.7417 107.194 46.0972 105.263 46.0972C104.11 46.0972 102.924 45.6614 102.441 44.4614C102.768 44.2423 103.003 44.1651 103.22 44.1651C103.562 44.1651 103.782 44.2738 104.125 44.6948C104.546 45.193 104.889 45.3491 105.434 45.3491C106.353 45.3491 107.04 44.6153 107.04 43.3684" fill="white"/>
<path d="M34.1035 20.0695C36.7297 20.0695 38.8604 17.9398 38.8604 15.3136C38.8604 12.6863 36.7308 10.5566 34.1035 10.5566C31.4773 10.5566 29.3459 12.6863 29.3459 15.3125C29.3459 17.9398 31.4767 20.0695 34.1018 20.0695" fill="#E41E2C"/>
<path d="M20.8963 24.6738C19.3448 25.7321 18.931 26.9635 18.931 28.4587L18.9382 40.5249V45.326C18.9382 47.2311 19.5065 48.0901 19.752 48.5017C20.563 49.8573 21.6952 50.9872 23.0497 51.7834L23.1512 51.843V31.8374L23.2725 31.886C26.0257 33.0076 29.8491 33.7122 34.0919 33.7122H34.1139C40.4146 33.7089 45.8215 32.1497 48.1056 29.9743C48.867 29.2504 49.2753 28.4653 49.2753 27.6432C49.2753 26.825 48.867 26.0399 48.1056 25.3083C47.3448 24.5883 46.2414 23.9301 44.8621 23.3784C42.1145 22.2639 38.3076 21.5814 34.0979 21.5814C34.0924 21.5781 34.0792 21.5781 34.0648 21.5781C28.4152 21.5814 23.5192 22.8708 20.8952 24.6744L20.8963 24.6738ZM27.6891 27.4441C27.587 27.3227 27.5556 27.1792 27.5556 27.0854C27.5556 26.8041 27.768 26.4896 28.1338 26.313C28.3103 26.2303 28.4946 26.1861 28.669 26.1861H39.7945C39.9694 26.1861 40.1531 26.2247 40.3296 26.3075C40.6993 26.4841 40.9068 26.7985 40.9045 27.0799C40.9045 27.1737 40.8748 27.3133 40.7705 27.433C40.6248 27.6041 40.3754 27.7034 40.1536 27.7034H28.3081C28.0874 27.7034 27.8447 27.6002 27.6902 27.433" fill="white"/>
<path d="M24.8593 52.9209L24.9007 52.9408C26.4014 53.6028 27.8138 54.0387 29.6604 54.3532L29.7399 54.3642V44.7195C30.8047 44.7526 31.4502 45.5929 31.4502 46.4519V51.6823C31.4502 52.7708 31.6433 53.6806 31.9688 54.5888L31.9799 54.6274L32.024 54.6329C32.3826 54.6715 33.0281 54.6947 33.7454 54.6947C34.733 54.6947 35.8861 54.6506 36.6475 54.5474L36.7302 54.5391L36.7026 54.4585C36.4268 53.6365 36.3219 52.8939 36.3219 51.9614V47.1372C36.3219 45.6834 35.1192 44.4933 33.6571 44.4911H33.6295V44.0409C35.1357 43.8643 36.333 42.6765 36.333 41.114L36.3291 37.7319C36.3291 36.9557 36.4041 36.1783 36.6066 35.4726L36.6342 35.3788L36.5349 35.3866C36.0858 35.4174 35.4149 35.4329 34.6977 35.4329C33.6455 35.4329 32.5018 35.3987 31.8855 35.3391L31.8315 35.3347L31.8138 35.3899C31.5561 36.2009 31.4552 36.8988 31.4552 37.8081V41.6481C31.4552 42.4646 30.8372 43.354 29.7432 43.3915V35.1195L29.6841 35.1129C27.8337 34.8685 26.4428 34.5744 24.9625 34.0867L24.8742 34.0547L24.8687 52.922L24.8593 52.9209Z" fill="white"/>
<path d="M47.6179 32.5177C45.56 33.7243 42.6011 34.7179 39.3045 35.1466C38.5763 35.2404 38.0466 35.8804 38.0477 36.6308L38.0367 52.8603C38.0367 53.5334 38.5774 54.0757 39.2505 54.0779C39.3332 54.0779 39.4215 54.068 39.5043 54.0504C42.0919 53.3828 44.2822 52.3786 46.0201 50.9993C47.565 49.7028 48.8229 47.9041 48.8229 45.78V33.2299C48.8008 32.7858 48.4367 32.4277 47.9843 32.4277C47.8463 32.4277 47.7194 32.4625 47.6091 32.5182L47.6179 32.5177ZM42.9691 49.305C42.9029 49.2167 42.8808 49.1157 42.8808 49.007L42.8825 37.3326C42.8935 37.0137 43.1556 36.7091 43.5445 36.6054C43.6383 36.5795 43.7321 36.5668 43.8204 36.5668C44.179 36.5668 44.488 36.7544 44.5708 37.0451C44.5851 37.0959 44.5928 37.1499 44.5928 37.2029V37.2746L44.5873 48.5519C44.5901 48.8167 44.4108 49.1257 44.1018 49.3298C43.8976 49.4622 43.6742 49.5339 43.4728 49.5339C43.2576 49.5339 43.0701 49.4512 42.9652 49.2967" fill="white"/>
<path d="M118.241 21.125V53.125" stroke="white"/>
<path d="M149.715 24.975C149.793 25.443 149.962 26.262 150.066 26.626L151.184 30.734C151.47 31.683 152.042 32.151 152.783 32.151C152.9 32.151 153.03 32.138 153.121 32.125L155.513 22.947H153.979L152.835 28.03C152.731 28.576 152.601 29.603 152.575 30.24H152.393C152.328 29.837 152.107 28.719 151.886 28.017L150.833 24.26C150.547 23.298 149.949 22.921 149.325 22.921C149.221 22.921 149.039 22.934 148.948 22.947L147.609 28.03C147.453 28.576 147.297 29.603 147.245 30.214H147.063C146.998 29.616 146.803 28.602 146.66 28.017L145.75 24.299C145.542 23.298 144.84 22.921 144.164 22.921C144.06 22.921 143.904 22.934 143.813 22.947L145.867 30.734C146.114 31.683 146.738 32.151 147.414 32.151C147.531 32.151 147.713 32.138 147.804 32.125L149.234 26.626C149.325 26.262 149.481 25.443 149.533 24.975H149.715ZM160.507 30.175C160.104 30.786 159.584 31.124 158.843 31.124C157.686 31.124 157.023 30.097 157.023 29.005H159.675C160.624 29.005 161.092 28.55 161.092 27.757C161.092 26.379 159.935 25.235 158.479 25.235C156.906 25.235 155.528 26.379 155.528 28.797C155.528 31.28 157.075 32.255 158.492 32.255C159.779 32.255 160.624 31.501 160.936 30.383L160.507 30.175ZM157.01 28.173C157.01 27.107 157.504 26.028 158.362 26.028C159.09 26.028 159.649 26.782 159.649 27.653C159.649 28.004 159.493 28.173 159.077 28.173H157.01ZM166.564 31.241H163.483L165.849 27.211C166.2 26.613 166.434 26.093 166.434 25.521V25.391H162.027V26.249H164.835L162.456 30.279C161.975 31.072 161.832 31.501 161.832 31.982V32.125H166.564V31.241ZM165.199 22.583C164.77 22.583 164.341 22.778 164.107 23.103L163.236 24.351C163.418 24.442 163.574 24.481 163.756 24.481C164.042 24.481 164.25 24.39 164.51 24.143L165.966 22.739C165.719 22.635 165.485 22.583 165.199 22.583ZM136.374 41.391L135.594 44.641C135.477 45.148 135.399 45.941 135.36 46.526H135.204C135.139 46.019 134.944 45.278 134.814 44.823L134.138 42.522C133.904 41.729 133.462 41.365 132.89 41.365C132.825 41.365 132.656 41.378 132.552 41.391L131.603 44.641C131.447 45.161 131.33 45.941 131.291 46.526H131.135C131.07 46.019 130.927 45.265 130.823 44.823L130.251 42.548C130.056 41.755 129.549 41.365 128.86 41.365C128.743 41.365 128.561 41.378 128.457 41.391L130.004 46.903C130.238 47.735 130.745 48.151 131.33 48.151C131.434 48.151 131.681 48.138 131.785 48.125L132.708 44.836C132.851 44.355 132.955 43.757 133.007 43.263H133.15C133.254 43.848 133.397 44.433 133.527 44.914L134.073 46.903C134.307 47.761 134.84 48.151 135.438 48.151C135.568 48.151 135.75 48.138 135.815 48.125L137.752 41.391H136.374ZM143.821 48.125V38.336H142.313V48.125H143.821ZM150.307 46.175C149.904 46.786 149.384 47.124 148.643 47.124C147.486 47.124 146.823 46.097 146.823 45.005H149.475C150.424 45.005 150.892 44.55 150.892 43.757C150.892 42.379 149.735 41.235 148.279 41.235C146.706 41.235 145.328 42.379 145.328 44.797C145.328 47.28 146.875 48.255 148.292 48.255C149.579 48.255 150.424 47.501 150.736 46.383L150.307 46.175ZM146.81 44.173C146.81 43.107 147.304 42.028 148.162 42.028C148.89 42.028 149.449 42.782 149.449 43.653C149.449 44.004 149.293 44.173 148.877 44.173H146.81ZM155.934 46.526C155.635 46.942 155.232 47.176 154.751 47.176C153.997 47.176 153.399 46.461 153.399 44.836C153.399 42.977 154.153 42.093 155.05 42.093C155.57 42.093 155.934 42.327 155.934 42.795V46.526ZM157.455 42.691C157.455 42.119 157.117 41.781 156.649 41.56C156.259 41.378 155.7 41.248 155.128 41.248C153.334 41.248 151.878 42.743 151.878 45.044C151.878 47.15 152.944 48.229 154.296 48.229C155.063 48.229 155.557 47.904 155.999 47.332L156.142 47.345L156.181 47.553C156.272 47.943 156.467 48.151 156.974 48.151C157.156 48.151 157.351 48.138 157.455 48.125V42.691ZM160.419 42.873C160.419 42.353 160.809 42.041 161.29 42.041C161.719 42.041 161.953 42.171 162.174 42.522C162.382 42.847 162.629 43.224 163.162 43.224C163.396 43.224 163.604 43.159 163.851 43.016C163.539 41.833 162.603 41.248 161.394 41.248C160.146 41.248 159.041 41.898 159.041 43.107C159.041 44.173 159.821 44.706 161.212 45.252C162.044 45.59 162.642 45.824 162.642 46.513C162.642 47.072 162.174 47.462 161.511 47.462C160.861 47.462 160.536 47.085 160.341 46.773C160.081 46.37 159.795 46.097 159.353 46.097C159.119 46.097 158.911 46.162 158.664 46.266C158.989 47.787 160.211 48.281 161.407 48.281C163.019 48.281 164.046 47.384 164.046 46.331C164.046 45.213 163.24 44.745 161.927 44.238C160.874 43.835 160.419 43.536 160.419 42.873ZM166.99 48.125V41.391H165.495V48.125H166.99ZM167.12 39.532C167.12 39.038 166.756 38.661 166.249 38.661C165.742 38.661 165.365 39.038 165.365 39.532C165.365 40.026 165.742 40.403 166.249 40.403C166.756 40.403 167.12 40.026 167.12 39.532ZM174.178 48.125V43.302C174.178 41.976 173.203 41.261 171.396 41.261C170.473 41.261 169.823 41.404 169.407 41.625C168.965 41.833 168.783 42.093 168.783 42.561V48.125H170.291V42.912C170.291 42.353 170.59 42.08 171.344 42.08C172.202 42.08 172.67 42.548 172.67 43.354V48.125H174.178ZM179.726 49.087C179.726 50.088 179.232 50.504 178.699 50.504C178.27 50.504 178.036 50.335 177.698 49.945C177.412 49.62 177.191 49.49 176.827 49.49C176.58 49.49 176.294 49.607 175.995 49.815C176.424 50.894 177.451 51.336 178.53 51.336C180.194 51.336 181.247 50.283 181.247 48.671V42.678C181.247 42.21 181.078 41.937 180.701 41.69C180.363 41.456 179.726 41.261 178.894 41.261C177.295 41.261 175.631 42.47 175.631 45.122C175.631 46.929 176.58 48.229 178.14 48.229C178.79 48.229 179.323 48.008 179.726 47.644V49.087ZM177.139 44.849C177.139 42.99 177.971 42.132 178.842 42.132C179.414 42.132 179.726 42.379 179.726 42.834V46.721C179.427 47.02 178.998 47.267 178.517 47.267C177.672 47.267 177.139 46.5 177.139 44.849Z" fill="white"/>
</svg>
